<svg xmlns="http://www.w3.org/2000/svg" xmlns:xlink="http://www.w3.org/1999/xlink" data-name="Layer 1" preserveAspectRatio="xMidYMid meet" version="1.0" viewBox="213.0 67.0 420.1 420.9" zoomAndPan="magnify" style="fill: rgb(0, 0, 0);" original_string_length="1184" width="86.69350988997333px" height="86.85142156554704px"><g id="__id0_ss66o29uuk"><path d="M227.68,487.88l-9.17-180.69s-5.5-19.26,26.6-19.72,362.75,2.3,362.75,2.3,25.22-5,23.85,26.6-8.26,171.51-8.26,171.51Z" style="fill: rgb(0, 47, 77);"/></g><g id="__id1_ss66o29uuk"><path d="M314.09,487.88l63.29-278.6s-92.18-55.72-19.95-99,169.22-.69,165.78,35.08S476.44,212,476.44,212l55.71,275.84h-22L455,196.21s48.3-31,46.24-48.15-34.4-32.33-78.08-32.33-64.32,13.76-65,36.46,42,47.46,42,47.46L341.61,487.88Z" style="fill: rgb(223, 217, 217);"/></g><g id="__id2_ss66o29uuk"><path d="M226,487.88V457.07s.38-10.12,23.45-10.76c29.83-.83,77.26,0,77.26,0s12.78,1.49,13.85,12.74,0,28.85,0,28.85Z" style="fill: rgb(111, 111, 111);"/></g><g id="__id3_ss66o29uuk"><path d="M516.55,487.88V457.07s-2.64-11.27,21.88-10.76c27.83.58,72.08,0,72.08,0s11.93,1.49,12.92,12.74,0,28.85,0,28.85Z" style="fill: rgb(111, 111, 111);"/></g><g id="__id4_ss66o29uuk"><path d="M360.73,487.88V457.07s-3.33-11.5,27.16-10.76c34.55.83,89.49,0,89.49,0s14.81,1.49,16.05,12.74,0,28.85,0,28.85Z" style="fill: rgb(111, 111, 111);"/></g></svg>