<svg xmlns="http://www.w3.org/2000/svg" xmlns:xlink="http://www.w3.org/1999/xlink" preserveAspectRatio="xMidYMid meet" version="1.0" viewBox="-0.4 0.1 475.1 115.9" zoomAndPan="magnify" style="fill: rgb(0, 0, 0);" original_string_length="18763" width="907.6480651350756px" height="221.13607405109116px"><g id="__id2_s4gcm3hql"><path d="M474.7,49.3c-3.5-1.8-7.2-2.1-11-1.1c-0.3,0.1-0.6,0.1-0.9,0.2c0.3-3.6-2.1-4.7-5.3-4.7 c-2.9,0-5.7,0.6-8.4,1.5c2-1.3,4.6-1.9,4.8-4.8c-0.1-0.1-0.1-0.1-0.2-0.2c0,0,0.1,0,0.1,0c0,0,0-0.1,0-0.1c0.8,0,1.6,0,2.4,0 c2.7-0.7,2.8-0.7,1.9-2.4c-0.4-0.8-1.2-1.6-1.8-2.3c-1-0.4-1.6-0.1-2,0.5c-0.6-0.5-1.2-1-1.9-1.3c0,0-0.1,0-0.1,0 c-3.4-0.6-6.4,1.2-9.7,1.1v0c-0.2,0-0.3-0.1-0.5-0.1c0.4-0.8,0.4-1.6,0.2-2.5c-0.1-0.2-0.3-0.5-0.2-0.5c0,0,0.1,0,0.1,0 c0.6,0.4,1.2,0.8,1.3,0.7c0.5-0.5,1.1-0.8,1.7-1c0.7,0,1.5-0.1,2.1-0.3c1.5-0.1,2.9-0.2,4.1-1.1c0.1-0.3,0.2-0.6,0.3-0.9 c-0.6-3-2-4.6-5.3-2.7c0,0,0,0,0,0c0,0,0,0,0,0c0,0,0,0,0,0c0,0,0,0,0,0c0,0,0,0,0,0c0,0,0.4-0.4,0.4-0.4c0.1-0.3,0.1-0.7,0.1-1.1 c0.7-0.2,1.8-0.2,2.1-0.9c2.3,1.1,4.5,0.3,6.7-0.6c0.6-0.2,0.9-0.5,0.9-1.1c-0.1-0.4-0.3-0.8-0.5-1.1c1.7,0.4,3.3,0.4,4.8-1.3 c0-2.7,0-2.7-4.7-2c-0.4,0.1-0.8,0.1-1.2,0.2c-0.6,0.9-1.5,1.1-2.5,1.1c-0.1-1.1-0.5-2-1.9-1.3c-0.7,0.3-1.2,0.9-1.8,1.3 c-0.1-0.1-0.3-0.2-0.4-0.3c-0.4-0.1-0.9-0.2-1.4-0.2c0,0,0,0,0,0c-0.1-0.1-0.1-0.1-0.2-0.2c-0.4-0.3-0.7-0.1-0.8,0.3 c-1.1,0.2-2.1,0.4-3.1,0.9c0.2-0.5,0.3-1-0.3-1.4c-1-0.5-1.8,0-2.2,1c-0.1,0.2-0.1,0.5-0.2,0.8c-0.1,0.1-0.2,0.1-0.3,0.2 c-0.2-0.1-0.4-0.1-0.5-0.1c0-0.2,0-0.5-0.1-0.7c-0.3-1-0.6-1.9-1.4-2.7c-3.1-2.1-4,0.3-5.1,2.2c-0.5-0.4-1.2-0.5-1.9-0.4 c-1.2,0.5-2,1.5-2.9,2.4c-0.7,0.4-0.9,0-1-1.3c-0.1-1-0.4-1.4-1.2-1.6c0-0.1,0-0.1,0-0.1c-2.6-1.1,0.6-3.6-1.3-4.8 c-3.7-1.3-6.9-1-9,2.3c-0.9-4.3-5-1.8-7.8-2.2c-1.6,0.4-2.4,1.4-2.9,2.7c-1.2-1.2-3-0.8-4.5-1.2c-0.1,0-0.1,0-0.2,0 c-0.2-0.4-0.3-0.8-0.5-1.1c0,0,0,0,0,0h0c1.1-0.9,1.3-1.7-0.1-2.5c-0.9,0.2-1.7,0.5-2.4,1c-0.4,0-0.8,0.1-1.3,0.1c0,0.1,0,0.3,0,0.4 c-0.3-0.1-0.5-0.2-0.8-0.3c-1-0.5-2.1-0.8-3.2-0.8c-0.6,0-1.1,0.1-1.6,0.4c-0.2,0.2-0.5,0.2-0.7,0.4c-0.8,0-1.5,0-2.3,0c0,0,0,0,0,0 c0,0,0,0,0,0c-2.6-0.2-2.5-2-2.6-3.7c0.6-0.9,1.3-1.7,2.4-2c0.2,0.6,0.7,0.9,1.4,1c1.3,0,2.5-0.1,3.8-0.1c0.1-0.2,0.2-0.3,0.3-0.5 c0,0,0,0,0-0.1c-0.1,0.2-0.3,0.5-0.6,0.9c1,0.9,2.1,1,3.4,0.8c0.6-0.2,1.1-0.5,1.6-0.8c0.5-0.4,1-0.8,1.5-1.1c0,0,0,0,0,0 c0.7-0.1,1.4-0.1,2.1-0.2c0,0,0,0,0,0c0.7,0.8,1.7,1.2,2.7,0.9c2.6-0.8,5.6-0.5,7.9-2.6c1-0.9,1.6,0.4,2,1.4 c0.3,0.5,0.8,0.8,1.4,0.8c2-0.1,3.1-1.5,4.5-2.6c2.8-2.2,1.3-3.4-1.2-4.3c-0.5-0.1-1.1-0.3-1.6-0.3c-0.3,0-0.5,0-0.8,0 c-1.9,0.1-3.6-0.5-5.4-0.6c-2.4,0-4.8,0.2-7.2,0.6c-0.9,0.4-1.8,0.4-2.7,0.1c-2,0-4.2-0.8-5.8,1.2c0,0,0,0.1,0,0.1 c-0.2-0.4-0.3-0.8-0.7-1c-0.4-0.2-0.8-0.3-1.2-0.2c-0.6,0.1-1.2,0.1-1.8,0c-0.4,0-0.8,0-1.2,0.1c-0.6,0.3-1.2-0.1-1.8-0.1 c-0.5,0-0.9,0.1-1.4,0.2c-0.7,0.3-1.4,0.7-1.8,1.4c-0.3-0.4-0.7-0.8-1.3-1c-3.3-0.9-6.6-0.7-9.9-0.2c-4.1,1.2-8.4,0.4-12.5,1 c-0.6,0.1-1.2,0.2-1.7,0.4c-1,0.4-1.8,1-2.1,2c-0.7-1.2-1.9-1.8-3.5-1.8c-0.5,0-1,0-1.5,0.1c-0.9,0.2-1.9,0.3-2.8,0.4 c-0.5,0.2-0.8,0.4-1.1,0.8c-1.3,0.9-2.9,0.4-4.3,0.6c-0.3,0.1-0.6,0.2-0.9,0.3c-0.5,0-0.9-0.1-1.4-0.1c-0.8,0-1.6,0.1-2.4,0.1l0,0 c-1.2,0.1-2.5,0.1-3.7,0.2c-0.8,0-1.6-0.1-2.4-0.1c-0.4,0-0.8-0.1-1.3-0.1c-0.4,0.1-0.8,0-1.2,0c-0.4,0.1-0.9,0.2-1.3,0.3 c-1.3,0.1-2,1-2.7,1.9c0,0,0,0,0,0c-0.3,0.1-0.5,0.1-0.7,0.2c0.4-0.6,0.5-1.2,0.4-1.8c-0.2-0.5-0.6-0.8-1.1-1c-1-0.2-2-0.1-3-0.2 c-0.5,0-1,0-1.5,0c-1,0.1-2,0.2-3,0.3c-0.5,0-1,0-1.5,0.1c-1.3,0-2.7,0-4-0.1c-0.5,0-1.1,0-1.6,0c-0.8,0-1.7,0-2.5,0 c-1.9,0-3.8,0-5.7,0.1c-0.5,0-1.1,0-1.6,0.1c-0.5,0-1,0.1-1.5,0.2c-0.5,0.1-0.9,0.2-1.4,0.3c-0.6,0.2-1.3,0.3-1.9,0.2 c-0.4-0.1-0.9-0.1-1.3,0c-0.4,0.1-0.8,0.4-1.1,0.7c0,0,0,0.1,0,0.1c-4.3,1.6-8.8-1.7-13.1,0.2c-1.7,0.4-3.6-0.3-5.2,0.9 c-0.9,0.4-1.3,1.5-2.2,2c-0.5,0-0.9,0-1.4,0c0,0,0,0,0,0c-0.2-1.4-1.2-1.7-2.4-1.9c-0.9,1-1.5,2.1-3.4,1.8c-2.1-0.4-4.4,0.1-6.5-0.5 c-0.6-0.2-1.1,0.3-1.5,0.8c0,0,0,0,0,0c0,0,0,0,0,0c0,0.1-0.1,0.1-0.1,0.2c-4.9-4.3-10.4-2.1-15.7-1.1c-6.2,0.1-12.3,1.3-18.5,1.3 c-1.5,1.7-2.4-0.8-3.7-0.5c-2,0.5-3.9,0.9-5.9,1.3c-0.6-1.3-1.6-1.5-3-1.2c-5.6,1.4-11.2,0-16.9,0.8c-4.3,0.6-8.8-0.1-13.2-0.1 c-6.3,0-12.6,1.1-18.8-0.3c-1,1.2-2.5,1-3.9,1.1c-1.2,0.1-2.4,0.1-3.6,0.2c-0.4-0.1-0.8-0.2-1.2-0.2c-6.5,0-13,0.2-19.5,0 c-7.1-0.1-14.1,0.8-21.2,0.1c-0.1,0-0.2,0-0.4,0c0.6-3.3-2.6-2.7-4.3-2.7c-5-0.2-10-0.7-15.1-0.2C87.3,8.1,82,8.2,76.7,8 C68.5,7.5,60.2,7.6,52,6.2c-0.6-0.9-1.2-1.8-2.4-1.9c-1.8,0.1-2.9,1-3.3,2.7c-0.4,0.4,1.1,0.8,0,1.2c-0.3-0.2-0.6-0.3-0.9-0.4 c-0.3-0.6-0.6-1.1-0.9-1.7c-0.8-0.4-1.6-0.8-2.5-1.2c-0.4,0.2-0.6,0.5-0.6,1c0,0.4,0,0.8,0,1.2c0,0,0.1,0.1,0.1,0.2 c-0.3,0-0.5,0-0.8,0c0,0.3,0,0.5,0,0.8c-0.1,0-0.2,0-0.2,0.1c0,0,0,0,0,0c-0.1,0-0.1-0.1-0.2-0.1c-0.3-0.1-0.6,0-0.9,0.3 c-0.4,0-0.8,0-1.2,0c0,0.2,0,0.4,0,0.6c0,0-0.1,0-0.1,0c-0.1,0-0.2,0.1-0.4,0.1c-0.2-0.4-0.5-0.8-0.9-1.1c-2.6,1.1-3-4.1-6-1.9 c0,0.2,0,0.4,0,0.6C31,7.3,31,8,30.7,8.3c-0.6,0.5-0.9-0.2-1.2-0.6c-0.5-0.6-0.9-1.2-1.6-2.3c-1.7,3.3-3.8,5.3-7.7,4.6 c-0.8-0.2-2.1,0.4-2.8,1c-1.7,1.7-4,1.7-6.1,2.2c-0.4,0.9-0.7,1.7-1.1,2.6c-0.1,0.3-0.2,0.6-0.2,0.9c-0.7,0-1.2,0.3-1.4,1 c-1.3,0.1-2.3,0.8-3,1.8c-1.2,1.6-2.6,2.9-4.5,3.7c-0.6,0.3-1.5,0.7-1.1,1.7c1.4,1.3,3.4,0.7,5.1,1.3c1.8,1.5,4.1,1.3,6.2,1.3 c2.2,0.1,2.6,1.4,2.5,3.1c0,0,0,0,0,0c0.5,1.4,1,2.8,2.3,3.7c1.7,1.2,0.5,2.2,0,3.4c-0.9,0.9-1.9,1.8-2.8,2.7 c-0.9,0.9-0.4,1.6,0.3,2.3c0.4,0.7,0.7,1.5,1.1,2.2c0,0,0,0,0,0c-1,0.4-1.9,0.9-2,2c-0.2,1.6-1.6,2.1-2.7,2.9 c-0.4-0.1-0.9-0.1-1.3-0.2c-2.3,1.7-2.3,1.7,0,2.6c0.1,0.1,0.3,0.4,0.4,0.4c0.3-0.1,0.6-0.3,0.9-0.4c0,0,0,0,0,0 c0.8-0.1,1.6-0.1,2.4-0.2c-0.8,1.8-2.4,3-3.8,4.2c-1.6,1.4-1.6,2.9-0.3,4.5c0.5,0,0.9-0.2,1.3-0.5c0.5,0,1,0,1.6,0.1 c1.1,0.1,1.8,0.5,2,1.7c0.3,1.6,0.4,3-0.9,4.2c-0.7,0.1-1.1,0.4-1.3,1.1c-0.7,0.1-1,0.5-1.2,1.1c-1.2,0-2.4,0.1-3.6,0.1 c-0.7,0.1-1.5,0.2-2.2,0.3c1.1,1.7,2.2,3.4,4.6,3.4c0.5,1,1.6,1,2.4,1.3c-1.5,1.2-2.7,2.5-2.4,4.5c-1.3,0.7-2.1,2.1-3.7,2.4 C4,79.8,3,80.3,1.9,80.5c0.4,0.6,0.8,1.2,1.3,1.9c0.2,0.5,0.6,0.8,1.1,1c0.3,0,0.6,0,0.9,0c0,0.1,0.1,0.2,0.1,0.3 c0.8,1.6,1.8,3,3.6,3.7c0.9,0.2,1.8,0.4,2.7,0.6c1.4,1.1,2.4,2.4,2.5,4.4c-1,1.3-1.8,2.6-1.3,4.2c1.1,0.1,2.1,0.3,3.2,0.4 c0.1,0.2,0.2,0.4,0.4,0.5c0.8,0.7,1.7,1.3,2.6,1.8c1.3,0.8,2.7,1.5,4.1,2c-0.3,1,0.2,2,0.8,3c0.6,0.7,1.3,1.3,2.1,1.6 c3,0.9,6.9,0,8.5,3.7c0.3,0.5,0.6,0.9,0.9,1.3c0.4,0.7,0.9,1.3,1.3,1.9c1.2,1.6,3,3.2,5,2.7c2.1-0.6,1.6-2.6,1.3-4.4 c-0.2-1.1,2-1,2-2.4c1.1,1.1,2.5,1.6,4.1,1.7c-0.1,0.3-0.1,0.6,0.1,0.6c3.8,0.9,6.4,4.3,10.2,5c2.3-1,3.6-2.7,4.2-5 c1.5,1.3,3.3,1.2,5.2,0.5c0.5-0.3,0.8-0.6,1-1c1.5-0.4,1.5-0.3,2,1.3c1.2,0.7,2,0,2.8-0.7c0.7-0.8,1.2-1.7,1.4-2.8 c0-0.5-0.1-1-0.4-1.5c0,0-0.1,0-0.1,0c0.1-0.1,0.1-0.2,0.1-0.3c0.1,0,0.1,0,0.2,0c0.8-0.3,1.5-0.6,2.2-1.1c0.7-0.4,1.4-0.7,2.1-1.1 c7.1-4.2,14.3-5.5,22.2-1.7c2.5,1.2,5.2,1.1,6.9-1.6c0.6-0.9,1-1.9,1.2-3c0,0,0,0,0-0.1c0.1,0,0.1,0,0.2,0c6.2,4,12.8,1.4,19.3,0.6 c0.1-0.2,0.1-0.4,0.1-0.5c1.2,1.2,2.9,1.3,4.5,1.4c1.1,0.1,2.2,0.1,3.4,0.1c-1.2,0.4-2.4,0.8-3.3,1.9c0,0.4,0,0.7,0,1.1c0,0,0,0,0,0 c1.6,0.2,1.4,2.9,3.6,2.1c0.1-0.4,0.2-0.8,0.4-1.1c1.4-1.4,4.6-0.6,4.9-3.4c0.3,0.2,0.7,0.3,0.8,0.6c0.2,0.6,0.4,1.1,0.9,1.5 c0,0.1,0,0.2,0.1,0.3c0.6,0.7,1.4,1,2.3,1c0.6,0,1.2-0.1,1.7-0.2c0.6-0.2,1.1-0.4,1.7-0.8c0.3,0,0.6,0.1,0.8,0.1 c0.3,0.5,0.6,1,0.9,1.5c1.5,2,1.9,2,3.2,0c0.3-0.5,0.6-1,0.9-1.5c0,0,0,0,0,0c0.8-0.1,1.6-0.3,2.4-0.4c1.2,0.1,2.5,0.1,3.7,0.2 c0.6,0,1.3,0,1.9,0c0.2,0.1,0.3,0.2,0.5,0.3c0.4,0,0.7,0,1-0.2c0.2,0.2,0.3,0.3,0.4,0.5c2.7,1.4,5.7,1,8.6,1c0,0,0.1,0,0.1,0 c-0.1,0.2-0.2,0.4-0.3,0.6c-0.1,0.3-0.1,0.9,0,1c0.9,0.5,1.9,0.4,2.8,0c0.6-0.3,0.7-0.9,0.5-1.5c-0.1-0.3-0.2-0.6-0.3-0.8 c0.2-0.1,0.4-0.2,0.6-0.3c0.2-0.2,0.3-0.4,0.3-0.6c0.2,0.2,0.4,0.3,0.7,0.2c0.4,1.8,0.5,3.7,3.2,3.8c2.2-1.2,4.9-2,5.7-4.8 c0,0,0.1,0,0.1,0.1c0.2,0,0.4,0,0.6,0c1,0,0.3,1.2,1,1.3c2,0.9,3.9,1.1,5.5-0.7c0.6-0.8,1.5-0.9,2.3-1c0,0,0,0,0,0.1 c0.3,0.4,0.7,0.7,1.2,0.9c3.4,1,6.8,1.5,10.3,0.7c0.1,0,0.1-0.1,0.2-0.1c0.7,1.1,2.2,1.6,3.2,2.4c0.8,0.3,1.6,0.4,2.4,0.2 c2.4-0.8,4.5-2.5,7.3-1.9c0.7,0.2,1.4,0.5,2.1,0.8c0.7,0.3,1.4,0.6,2.1,0.8c0.8,0.1,1.5-0.1,2.2-0.5c0.4-0.3,0.8-0.6,1.2-1 c0-0.2,0-0.5,0-0.7c0.1,0,0.2,0.1,0.4,0.1c9.5-0.5,19,0.8,28.5-0.8c3.7-1.6,7.8-0.3,11.4-1.6c0.2-0.1,0.4-0.3,0.6-0.5 c1.2,0.8,2.3,1.8,2.3,3.4c-0.8,0-1.6,0-2.4,0c-0.8-0.3-1.7-0.4-2.5,0c-1.3,0.4-1.1,1.5-1.3,2.4c0,0,0,0,0,0 c-1.2,0.6-2.4,1.2-3.6,1.9c-1.1,0.7-1.5,1.7-0.2,2.7c2.2,1.3,4.5,2,7,0.8c0.4-0.3,0.8-0.7,1-1.2c0-0.3,0-0.5,0-0.8c0,0,0,0,0-0.1 c0.5-0.2,0.9-0.4,1.4-0.6l0,0c1,0,2-0.1,3.1-0.1c0,0,0,0,0,0c0,0,0,0,0,0c0,0.4,0.1,0.7,0.2,1.1c0.4-0.4,0.8-0.8,1.2-1.2 c0,0,0,0,0,0c0-0.1,0-0.3,0-0.4c0.5-0.1,1-0.1,1.5-0.2c0.3,0,0.5,0,0.8,0c-0.3,1,0.1,2,0.8,2.9c0.4,0.3,0.8,0.5,1.3,0.6 c0.6,0,1.3-0.1,1.4,0.8c0,0.2,0.1,0.4,0.1,0.6c0.2,0.1,0.3,0.3,0.5,0.4l0,0c0.8,0.8,1.5,0.8,2.3,0c0.4-0.3,0.8-0.6,1.3-0.9 c0.9,0.4,1.9,0.2,2.8,0.4c0.5,0.1,0.9,0.2,1.4,0.2c0.7-0.1,1.4-0.2,1.9-0.8l0,0c0.7-0.4,1.3-0.9,1.8-1.5c0,0.3,0.1,0.7,0.2,1 c0.2,0.2,0.3,0.3,0.5,0.5c2.8-0.9,5.7-1.1,8.6-1.1c1,0,1.9-0.4,2.6-1.1c0,0,0,0,0,0c1.3-0.2,2.4,0.3,3.5,0.8 c1.3,0.5,2.5,0.3,3.4-0.6c0,0,0.1,0,0.1,0c0.5,0.2,1,0.2,1.5,0.2c0.1,0,0.2,0,0.3-0.1c0.5,0.9,1.2,1.5,2.3,0.3 c0.7-0.8,1.9-0.7,2.7-1.2c0.3,0,0.6,0,0.9,0c0.5,0,0.9-0.1,1.4-0.2c0.5,0.2,0.9,0.4,1.4,0.3c3.4-0.6,6.8-0.8,10.1-1.6 c2.7-0.7,5.4-1,8.1-1.4c0,0.1,0.2,0.1,0.5,0.1c0.3,0,0.6-0.1,0.9-0.4l0-0.5c0.1-0.1,0.3-0.1,0.4-0.1c0.3-0.2,0.6-0.4,0.9-0.5 c1.9-0.1,3.9-0.1,5.8-0.2c0.8-0.3,1.7-0.7,2.5-1c0.1,0.1,0.2,0.2,0.4,0.3c0.6,1.1,1.3,1.5,3,0.9c0.7-0.2,1.2-0.4,1.7-0.5 c0.4,0,0.8-0.1,1.2-0.3c1.6-0.2,2.2,0.6,3.8,3.1c0.4,0.6,0.7,1.4,2.1,1.4c0.4-1.9,0.8-4,2.2-5.7c0.6-0.7,1.1-0.8,1.9,0 c1.3,1.4,1.4,1.3,2.3-0.2c1.6-2.6,1.6-2.6,4.3-0.9c0.3,0.2,0.7,0.5,1,0.6c1,0.2,1.5,0,0.9-1.2c-0.2-0.4-0.1-0.7,0.1-0.9 c0.4-0.1,0.9-0.2,1.3-0.3c1.3-0.4,2.5-0.8,3.8-1.1c1.8-0.4,3.7-0.6,5.4-1.2c1.8-0.6,3.9-0.6,5.6-1.3c0.2-0.1,0.3-0.2,0.5-0.4 c3.7,2,7-1.4,10.6-1.2c0.6-0.1,1.2-0.2,1.7-0.4c1.1-0.4,2.1-0.9,3-1.5c0.2-0.2,0.4-0.4,0.6-0.6c1.2,0.5,2.2-0.1,3-1.1 c1.2,1,2.6,1.1,4.1,0.9c0.7,0,1.3-0.2,1.9-0.5c2.1,1.1,3.9,1.2,5.3-1.5c0,0,0,0.1,0,0.1c0.5,0.3,1,0.6,1.6,0.7 c7.3-0.7,14.2-2.3,20.8-5.5c0.1-0.2,0.1-0.4,0.2-0.6c1.6,0.1,2.9-0.9,4.5-1c1.4-2.4,0.5-3.9-1.1-5.1c0.5,0.1,1,0.2,1.4,0 c0.2,0,0.3-0.1,0.5-0.1c0.2,0.1,0.3,0.3,0.5,0.5c1.3,1.7,2.9,0.6,4.3,0.3c0.8-0.2,0.7-1.3,0.7-2.2c0.3,0.2,0.6,0.3,1,0.4 c2.6,0.2,5-0.2,7.3-1.4c0.4-0.4,0.7-0.8,0.7-1.4c-0.8-3.1-1.8-6.2-1.3-9.4c0,0-0.1-0.1-0.1-0.1c0.9,0.5,1.7,0.4,2.6-0.1 c2.1-6.1-3.3-3.8-5.8-4.7c-0.6-0.1-1.2-0.2-1.8-0.2c-0.6,0-1.2,0-1.8,0c-0.9,0-1.8-0.2-2.7-0.2c-0.9,0.2-1.8,0.3-2.5,0.9 c0,0-0.1,0-0.1,0c-0.6,0-1.3,0-1.9,0c-0.4,0-0.8,0-1.2,0c0.8-0.2,1.6-0.4,2.4-0.4c1.8-0.3,3.1-1.3,4-2.7c0.2,0.6,0.6,1.1,1.1,1.6 c3.7,0.1,7.1-0.3,9.5-3.4c0.4-1.5,0-2.3-0.8-2.9C470.4,52.9,473.9,53.6,474.7,49.3z M389.8,5.9c0,0.1,0,0.1,0,0.2c0,0-0.1,0-0.1,0 c0,0,0,0,0,0h0h0c0,0,0,0-0.1,0C389.7,6,389.8,5.9,389.8,5.9z M23.7,41.5C23.7,41.5,23.7,41.4,23.7,41.5c0.1-0.1,0.1-0.1,0.2-0.1 C23.8,41.5,23.7,41.5,23.7,41.5z M23.7,41.4C23.7,41.4,23.6,41.4,23.7,41.4c0.1-0.1,0.3-0.2,0.5-0.2C24,41.3,23.8,41.3,23.7,41.4z M24.8,41.4C24.8,41.4,24.8,41.4,24.8,41.4C24.8,41.4,24.9,41.4,24.8,41.4C24.9,41.5,24.8,41.4,24.8,41.4z M67.7,14.2 c0.1,0,0.1-0.1,0.2-0.1c0,0,0,0.1,0.1,0.1C67.9,14.2,67.8,14.2,67.7,14.2z M75.5,98.9C75.5,98.9,75.5,98.9,75.5,98.9 C75.5,98.9,75.5,98.9,75.5,98.9C75.5,98.9,75.5,98.9,75.5,98.9z M87.8,36.8C87.8,36.8,87.8,36.7,87.8,36.8 C87.8,36.7,87.8,36.7,87.8,36.8C87.8,36.7,87.8,36.7,87.8,36.8C87.8,36.8,87.8,36.8,87.8,36.8z M115.9,29.4 C115.8,29.4,115.8,29.4,115.9,29.4c-0.1-0.1,0-0.1,0-0.1C115.9,29.3,115.9,29.3,115.9,29.4C115.9,29.4,115.9,29.4,115.9,29.4z M119.6,22.9C119.6,22.9,119.6,22.9,119.6,22.9c0.1-0.2,0.2-0.4,0.2-0.6c0,0-0.1,0-0.1,0c0,0,0-0.1,0-0.1c0,0,0.1,0,0.1,0.1 c0.1,0.2,0.2,0.4,0.4,0.5C120,22.9,119.8,22.9,119.6,22.9z M122.3,26.3C122.3,26.3,122.3,26.3,122.3,26.3 C122.3,26.3,122.3,26.3,122.3,26.3C122.3,26.3,122.3,26.3,122.3,26.3C122.3,26.3,122.3,26.3,122.3,26.3z M123.4,37.8 C123.4,37.8,123.4,37.8,123.4,37.8C123.5,37.8,123.5,37.8,123.4,37.8C123.5,37.8,123.5,37.8,123.4,37.8 C123.5,37.8,123.5,37.8,123.4,37.8C123.5,37.9,123.5,37.9,123.4,37.8C123.5,37.9,123.4,37.9,123.4,37.8z M123.5,39.1 C123.5,39.1,123.5,39.1,123.5,39.1C123.5,39.1,123.5,39.1,123.5,39.1C123.5,39.1,123.5,39.1,123.5,39.1z M128.3,35.4 c0.1-0.1,0.1-0.2,0.2-0.3c0.1,0.1,0.2,0.2,0.3,0.3C128.6,35.4,128.5,35.4,128.3,35.4z M129.9,97C130,97,130,97,129.9,97 C130,97,130,97,129.9,97C130,97,130,97,129.9,97z M132.3,41.3C132.3,41.3,132.3,41.3,132.3,41.3C132.3,41.3,132.3,41.3,132.3,41.3 C132.3,41.3,132.3,41.3,132.3,41.3z M133.2,41.2c0.2-0.1,0.4-0.2,0.6-0.3c0.1,0.1,0.3,0.3,0.4,0.4C133.8,41.3,133.5,41.2,133.2,41.2 z M150.7,18.2C150.7,18.2,150.7,18.2,150.7,18.2C150.7,18.2,150.7,18.2,150.7,18.2C150.7,18.2,150.7,18.2,150.7,18.2 C150.7,18.2,150.7,18.2,150.7,18.2z M154.5,44C154.5,44,154.5,43.9,154.5,44C154.5,43.9,154.5,43.9,154.5,44 C154.5,43.9,154.5,44,154.5,44z M161.6,47.3c-0.1,0-0.2-0.1-0.3-0.1c0.1,0,0.2,0,0.3,0h0C161.6,47.2,161.6,47.3,161.6,47.3z M161.6,47.2L161.6,47.2C161.6,47.2,161.6,47.2,161.6,47.2C161.6,47.2,161.6,47.2,161.6,47.2C161.6,47.2,161.6,47.2,161.6,47.2z M162,29.7c-0.2-0.2-0.2-0.4,0.1-0.5c0.1,0,0.3,0.1,0.4,0.1C162.3,29.4,162.1,29.5,162,29.7z M172.8,13.1 C172.8,13.1,172.8,13.1,172.8,13.1C172.8,13.2,172.8,13.2,172.8,13.1C172.8,13.1,172.8,13.1,172.8,13.1z M173.8,29.7 c-0.8,0-1.5,0-2.3,0c0,0,0,0,0,0c0,0,0,0,0,0c-0.1-0.1-0.1-0.1-0.2-0.2c1.4-0.1,2.8-0.1,4.2-0.1C175,29.4,174.4,29.6,173.8,29.7z M177.7,44C177.7,44,177.7,44,177.7,44c0,0,0.1-0.2,0.1-0.2c0,0,0.1,0,0.1,0C177.8,43.8,177.7,43.9,177.7,44z M179.9,51.1 c0-0.1,0.1-0.2,0.1-0.3c0.1,0,0.2,0,0.2,0C180.1,51,180,51,179.9,51.1z M181.9,29.9c-0.5-0.4-1-0.6-1.6-0.8c0.7-0.1,1.4-0.2,2.1-0.3 C182.2,29.2,182.1,29.5,181.9,29.9z M196.6,23.4C196.7,23.4,196.7,23.3,196.6,23.4c-0.1-0.3-0.2-0.5-0.3-0.7 c0.1,0.1,0.2,0.3,0.3,0.4c0.1,0.1,0.2,0.1,0.3,0.2C196.8,23.3,196.7,23.4,196.6,23.4z M197.3,39C197.3,39,197.3,39,197.3,39 C197.3,39,197.3,39,197.3,39C197.3,39,197.3,39,197.3,39C197.3,39,197.3,39,197.3,39z M213.2,46.6c0,0.3,0.1,0.5,0.2,0.8 c-0.2-0.3-0.4-0.5-0.6-0.8c0.2,0,0.5-0.1,0.7-0.5C213.4,46.2,213.3,46.4,213.2,46.6z M218.3,20.1c0,0,0.1,0.1,0.1,0.1c0,0,0,0,0,0 c0,0,0,0,0,0c-0.1,0-0.1,0-0.2,0C218.2,20.2,218.2,20.2,218.3,20.1z M218.4,89.7C218.4,89.7,218.4,89.7,218.4,89.7 c0,0.1-0.1,0.1-0.1,0.2c0-0.1,0-0.1-0.1-0.2C218.3,89.7,218.4,89.7,218.4,89.7C218.4,89.7,218.4,89.7,218.4,89.7 C218.4,89.7,218.4,89.7,218.4,89.7z M227.9,58.1c0,0,0-0.1,0-0.1c0-0.1,0-0.2,0-0.2c0,0,0.1,0,0.1,0c0,0,0,0.1,0,0.3 C228,58,227.9,58,227.9,58.1z M236.9,27.6C236.9,27.6,236.9,27.6,236.9,27.6c-0.4,0-0.8-0.1-1.2,0c-0.2,0-0.5,0.1-0.7,0.2 c-0.5-0.3-1.1-0.5-1.7-0.6c-0.1-0.3-0.2-0.7-0.2-1c0.7-0.3,1.4-0.6,2.1-1c0.4,0,0.8-0.1,1.1-0.1c0.2,0,0.3-0.1,0.5-0.1c0,0,0,0,0,0 c0,0,0,0,0,0h0c0.3,0,0.5,0.2,0.8,0.3c0,0.6,0.2,1,0.6,1.4C237.8,26.8,237.4,27.2,236.9,27.6z M243.1,19.1L243.1,19.1 c-0.1,0-0.1,0.1-0.1,0.1c0,0,0,0,0,0c-0.1-0.1-0.1-0.1-0.2-0.2C242.9,19,243,19.1,243.1,19.1C243.1,19.1,243.1,19.1,243.1,19.1z M273.9,44.9c-0.1,0-0.2,0.1-0.2,0.1c0.1-0.1,0.2-0.1,0.2-0.2C273.9,44.8,273.9,44.8,273.9,44.9z M273.9,105c0-0.1,0-0.1,0-0.2 c0,0.1,0.1,0.1,0.1,0.2C274,105,273.9,105,273.9,105z M278.7,15.6C278.7,15.6,278.7,15.6,278.7,15.6 C278.7,15.6,278.7,15.6,278.7,15.6C278.7,15.6,278.7,15.6,278.7,15.6z M283.6,58.1c0,0,0.1,0,0.1,0 C283.7,58.1,283.7,58.1,283.6,58.1C283.6,58.1,283.6,58.1,283.6,58.1z M283.8,73.2c0-0.2-0.1-0.4-0.1-0.6c0.1,0.1,0.2,0.3,0.2,0.6 C283.9,73.2,283.8,73.2,283.8,73.2z M287.3,44c0,0,0-0.1,0-0.1c0,0,0.1,0,0.1,0C287.4,43.9,287.4,44,287.3,44z M290.9,44.9 c0.1-0.1,0.1-0.2,0.2-0.3c0.1,0,0.1,0.1,0.2,0.1C291.2,44.8,291,44.9,290.9,44.9z M296.3,105.2C296.3,105.2,296.3,105.2,296.3,105.2 c0.1-0.1,0.1,0,0.1,0C296.4,105.2,296.3,105.2,296.3,105.2z M297.4,15.8C297.4,15.7,297.4,15.7,297.4,15.8 C297.5,15.7,297.4,15.8,297.4,15.8C297.4,15.8,297.4,15.8,297.4,15.8z M309.7,14.1c-0.1,0-0.3-0.1-0.4-0.1c0.1-0.3,0.3-0.4,0.4-0.4 C309.7,13.7,309.7,13.9,309.7,14.1z M316.5,17.7c0-0.3,0-0.6,0-0.8c0.2,0.2,0.3,0.5,0.5,0.8C316.8,17.7,316.6,17.7,316.5,17.7z M320.8,18.9C320.8,18.9,320.8,18.9,320.8,18.9C320.8,18.9,320.8,18.9,320.8,18.9L320.8,18.9z M328.2,13.2 C328.1,13.2,328.1,13.2,328.2,13.2c0.1-0.1,0.1-0.2,0.1-0.2c0,0,0,0,0,0C328.3,13,328.2,13.1,328.2,13.2z M340.4,15.3 c-0.1-0.2-0.3-0.4-0.3-0.5c0.2,0.2,0.3,0.3,0.5,0.5C340.5,15.3,340.4,15.3,340.4,15.3z M356.3,20C356.3,20,356.3,20,356.3,20 C356.3,20,356.3,20,356.3,20C356.3,20,356.3,20,356.3,20z M362.7,30.9C362.7,30.9,362.7,30.9,362.7,30.9 C362.7,30.9,362.7,30.9,362.7,30.9C362.8,30.9,362.8,30.9,362.7,30.9C362.8,30.9,362.8,30.9,362.7,30.9 C362.7,30.9,362.7,30.9,362.7,30.9c0.1,0.1,0.1,0.1,0.2,0.1c0.1,0.1,0.2,0.3,0.3,0.4C363,31.2,362.9,31.1,362.7,30.9z M367.7,13.6 c-0.8-1-1.9-1.5-3.1-1.6c0.1-0.4,0-0.7-0.1-1.1c0-0.1-0.1-0.1-0.1-0.1c0.3,0,0.6,0,0.9-0.1c0,0,0,0,0,0c0,0,0,0,0,0 c1.2-0.7,2.4-0.5,3.6,0.2c0,0,0,0,0,0c0,0,0,0,0,0c0,0.3,0,0.6,0.1,0.8C368.1,12.2,367.8,12.9,367.7,13.6z M372.3,98.2 c0,0-0.1-0.1-0.1-0.1c0.1,0,0.1,0,0.2-0.1C372.3,98.1,372.3,98.2,372.3,98.2z M378.5,29.8C378.4,29.8,378.4,29.7,378.5,29.8 C378.4,29.7,378.5,29.7,378.5,29.8C378.5,29.7,378.5,29.8,378.5,29.8z M379.6,33.5C379.6,33.5,379.6,33.5,379.6,33.5 c0,0,0-0.1,0-0.1c0,0.1,0.1,0.1,0.1,0.1C379.7,33.5,379.7,33.5,379.6,33.5z M384.6,42.5C384.6,42.5,384.6,42.5,384.6,42.5 C384.6,42.5,384.6,42.5,384.6,42.5L384.6,42.5z M384.7,43C384.7,43,384.7,43,384.7,43C384.7,43,384.7,43,384.7,43 C384.7,43,384.7,43,384.7,43z M384.7,42.8c0-0.1,0.1-0.2,0.1-0.3c0,0-0.2-0.1-0.2-0.1c0,0,0.1-0.1,0.1-0.1c0,0.1,0.1,0.2,0.1,0.3 c0,0,0,0,0.1,0C384.9,42.7,384.8,42.8,384.7,42.8z M395.9,75.7C395.9,75.7,395.9,75.7,395.9,75.7C396,75.6,396,75.6,395.9,75.7 C396,75.7,396,75.7,395.9,75.7z M400.5,55.6C400.5,55.6,400.5,55.5,400.5,55.6C400.5,55.5,400.5,55.5,400.5,55.6 C400.5,55.5,400.5,55.6,400.5,55.6z M444.1,50.7C444.1,50.7,444.1,50.7,444.1,50.7C444.1,50.7,444.1,50.7,444.1,50.7L444.1,50.7z M444.1,50.8C444.1,50.8,444.1,50.8,444.1,50.8L444.1,50.8C444.1,50.8,444.1,50.8,444.1,50.8C444.1,50.8,444.1,50.8,444.1,50.8 C444.1,50.8,444.1,50.8,444.1,50.8C444.1,50.8,444.1,50.8,444.1,50.8z M441.9,63.4C441.9,63.4,441.9,63.4,441.9,63.4 c-0.7-0.4-1.5-0.5-2.3-0.5c-0.2,0-0.3,0-0.5,0c0.3-0.1,0.5-0.3,0.8-0.4c1-0.7,2.2-1.2,3-2.1c0,0,0,0,0,0c0,0,0,0,0,0 c1.2,0.8,2.3,0.8,3.4-0.2c0.1,0.2,0.3,0.4,0.5,0.6c0.2,0.1,0.4,0.2,0.6,0.2C445.3,61.2,443.4,61.5,441.9,63.4z M447.3,58.7 C447.3,58.7,447.3,58.7,447.3,58.7c0.2,0,0.3,0.1,0.4,0.3C447.5,58.9,447.4,58.8,447.3,58.7z M455,67.7c0.1,0,0.1,0,0.2,0 c0.4,0,0.8,0,1.3-0.1c0.1,0.1,0.1,0.2,0.2,0.2c0.3,0.1,0.6,0,0.7-0.3c0.6-0.1,1.3-0.2,1.9-0.4c0.5-0.2,0.8-0.6,1.1-1 c0.7,0,1.4,0,2.1,0c0,0.4,0,0.8,0,1.1c-0.2,3.3-0.3,3.3-4,4.3c-0.3,0.1-0.6,0.4-1,0.6h0c-0.4,0-0.8,0-1.2,0c-0.3-0.5-0.5-1.1-1-1.5 C454.4,69.6,454.4,68.7,455,67.7z M453.9,72.3C453.9,72.3,453.9,72.3,453.9,72.3c-0.1,0.3,0,0.6,0.1,0.9c0,0-0.1,0-0.1,0 c0,0,0,0,0,0c0,0,0,0,0,0c0,0,0,0,0,0c0,0-0.1,0-0.1,0c0-0.1,0-0.5,0-0.5L453.9,72.3z" style="fill: rgb(20, 91, 137);"/></g></svg>