<svg xmlns="http://www.w3.org/2000/svg" xmlns:xlink="http://www.w3.org/1999/xlink" viewBox="0 0 276.72 276.48" style="fill: rgb(0, 0, 0);" original_string_length="16276" width="23.51633461023168px" height="23.430820666194478px"><defs><clipPath id="__id165_s4gcm3hql"><circle cx="131.36" cy="131.19" r="123.18" style="fill: none;"/></clipPath><filter filterUnits="userSpaceOnUse" height="276.48" id="__id166_s4gcm3hql" width="276.72" x="0" y="0"><feOffset dx="7" dy="7"/><feGaussianBlur result="blur" stdDeviation="5"/><feFlood/><feComposite in2="blur" operator="in"/><feComposite in="SourceGraphic"/></filter></defs><g data-name="Layer 2"><g data-name="Layer 1"><g id="__id167_s4gcm3hql"><circle cx="131.36" cy="131.19" filter="url(#__id166_s4gcm3hql)" r="123.18" style="fill: rgb(255, 145, 77);"/></g><g clip-path="url(#__id165_s4gcm3hql)" stroke="#f0dbdb" stroke-miterlimit="10" style="fill: none;"><path d="M-11.61 -11.78H6.260000000000002V6.090000000000002H-11.61z" style="fill: inherit;"/><path d="M6.26 -11.78H24.130000000000003V6.090000000000002H6.26z" style="fill: inherit;"/><path d="M24.13 -11.78H42V6.090000000000002H24.13z" style="fill: inherit;"/><path d="M42.01 -11.78H59.879999999999995V6.090000000000002H42.01z" style="fill: inherit;"/><path d="M59.88 -11.78H77.75V6.090000000000002H59.88z" style="fill: inherit;"/><path d="M77.75 -11.78H95.62V6.090000000000002H77.75z" style="fill: inherit;"/><path d="M95.62 -11.78H113.49000000000001V6.090000000000002H95.62z" style="fill: inherit;"/><path d="M113.49 -11.78H131.35999999999999V6.090000000000002H113.49z" style="fill: inherit;"/><path d="M131.36 -11.78H149.23000000000002V6.090000000000002H131.36z" style="fill: inherit;"/><path d="M149.23 -11.78H167.1V6.090000000000002H149.23z" style="fill: inherit;"/><path d="M167.1 -11.78H184.97V6.090000000000002H167.1z" style="fill: inherit;"/><path d="M184.97 -11.78H202.84V6.090000000000002H184.97z" style="fill: inherit;"/><path d="M202.84 -11.78H220.71V6.090000000000002H202.84z" style="fill: inherit;"/><path d="M220.72 -11.78H238.59V6.090000000000002H220.72z" style="fill: inherit;"/><path d="M238.59 -11.78H256.46V6.090000000000002H238.59z" style="fill: inherit;"/><path d="M256.46 -11.78H274.33V6.090000000000002H256.46z" style="fill: inherit;"/><path d="M274.33 -11.78H292.2V6.090000000000002H274.33z" style="fill: inherit;"/><path d="M-11.61 6.09H6.260000000000002V23.96H-11.61z" style="fill: inherit;"/><path d="M6.26 6.09H24.130000000000003V23.96H6.26z" style="fill: inherit;"/><path d="M24.13 6.09H42V23.96H24.13z" style="fill: inherit;"/><path d="M42.01 6.09H59.879999999999995V23.96H42.01z" style="fill: inherit;"/><path d="M59.88 6.09H77.75V23.96H59.88z" style="fill: inherit;"/><path d="M77.75 6.09H95.62V23.96H77.75z" style="fill: inherit;"/><path d="M95.62 6.09H113.49000000000001V23.96H95.62z" style="fill: inherit;"/><path d="M113.49 6.09H131.35999999999999V23.96H113.49z" style="fill: inherit;"/><path d="M131.36 6.09H149.23000000000002V23.96H131.36z" style="fill: inherit;"/><path d="M149.23 6.09H167.1V23.96H149.23z" style="fill: inherit;"/><path d="M167.1 6.09H184.97V23.96H167.1z" style="fill: inherit;"/><path d="M184.97 6.09H202.84V23.96H184.97z" style="fill: inherit;"/><path d="M202.84 6.09H220.71V23.96H202.84z" style="fill: inherit;"/><path d="M220.72 6.09H238.59V23.96H220.72z" style="fill: inherit;"/><path d="M238.59 6.09H256.46V23.96H238.59z" style="fill: inherit;"/><path d="M256.46 6.09H274.33V23.96H256.46z" style="fill: inherit;"/><path d="M274.33 6.09H292.2V23.96H274.33z" style="fill: inherit;"/><path d="M-11.61 23.96H6.260000000000002V41.83H-11.61z" style="fill: inherit;"/><path d="M6.26 23.96H24.130000000000003V41.83H6.26z" style="fill: inherit;"/><path d="M24.13 23.96H42V41.83H24.13z" style="fill: inherit;"/><path d="M42.01 23.96H59.879999999999995V41.83H42.01z" style="fill: inherit;"/><path d="M59.88 23.96H77.75V41.83H59.88z" style="fill: inherit;"/><path d="M77.75 23.96H95.62V41.83H77.75z" style="fill: inherit;"/><path d="M95.62 23.96H113.49000000000001V41.83H95.62z" style="fill: inherit;"/><path d="M113.49 23.96H131.35999999999999V41.83H113.49z" style="fill: inherit;"/><path d="M131.36 23.96H149.23000000000002V41.83H131.36z" style="fill: inherit;"/><path d="M149.23 23.96H167.1V41.83H149.23z" style="fill: inherit;"/><path d="M167.1 23.96H184.97V41.83H167.1z" style="fill: inherit;"/><path d="M184.97 23.96H202.84V41.83H184.97z" style="fill: inherit;"/><path d="M202.84 23.96H220.71V41.83H202.84z" style="fill: inherit;"/><path d="M220.72 23.96H238.59V41.83H220.72z" style="fill: inherit;"/><path d="M238.59 23.96H256.46V41.83H238.59z" style="fill: inherit;"/><path d="M256.46 23.96H274.33V41.83H256.46z" style="fill: inherit;"/><path d="M274.33 23.96H292.2V41.83H274.33z" style="fill: inherit;"/><path d="M-11.61 41.83H6.260000000000002V59.7H-11.61z" style="fill: inherit;"/><path d="M6.26 41.83H24.130000000000003V59.7H6.26z" style="fill: inherit;"/><path d="M24.13 41.83H42V59.7H24.13z" style="fill: inherit;"/><path d="M42.01 41.83H59.879999999999995V59.7H42.01z" style="fill: inherit;"/><path d="M59.88 41.83H77.75V59.7H59.88z" style="fill: inherit;"/><path d="M77.75 41.83H95.62V59.7H77.75z" style="fill: inherit;"/><path d="M95.62 41.83H113.49000000000001V59.7H95.62z" style="fill: inherit;"/><path d="M113.49 41.83H131.35999999999999V59.7H113.49z" style="fill: inherit;"/><path d="M131.36 41.83H149.23000000000002V59.7H131.36z" style="fill: inherit;"/><path d="M149.23 41.83H167.1V59.7H149.23z" style="fill: inherit;"/><path d="M167.1 41.83H184.97V59.7H167.1z" style="fill: inherit;"/><path d="M184.97 41.83H202.84V59.7H184.97z" style="fill: inherit;"/><path d="M202.84 41.83H220.71V59.7H202.84z" style="fill: inherit;"/><path d="M220.72 41.83H238.59V59.7H220.72z" style="fill: inherit;"/><path d="M238.59 41.83H256.46V59.7H238.59z" style="fill: inherit;"/><path d="M256.46 41.83H274.33V59.7H256.46z" style="fill: inherit;"/><path d="M274.33 41.83H292.2V59.7H274.33z" style="fill: inherit;"/><path d="M-11.61 59.7H6.260000000000002V77.57000000000001H-11.61z" style="fill: inherit;"/><path d="M6.26 59.7H24.130000000000003V77.57000000000001H6.26z" style="fill: inherit;"/><path d="M24.13 59.7H42V77.57000000000001H24.13z" style="fill: inherit;"/><path d="M42.01 59.7H59.879999999999995V77.57000000000001H42.01z" style="fill: inherit;"/><path d="M59.88 59.7H77.75V77.57000000000001H59.88z" style="fill: inherit;"/><path d="M77.75 59.7H95.62V77.57000000000001H77.75z" style="fill: inherit;"/><path d="M95.62 59.7H113.49000000000001V77.57000000000001H95.62z" style="fill: inherit;"/><path d="M113.49 59.7H131.35999999999999V77.57000000000001H113.49z" style="fill: inherit;"/><path d="M131.36 59.7H149.23000000000002V77.57000000000001H131.36z" style="fill: inherit;"/><path d="M149.23 59.7H167.1V77.57000000000001H149.23z" style="fill: inherit;"/><path d="M167.1 59.7H184.97V77.57000000000001H167.1z" style="fill: inherit;"/><path d="M184.97 59.7H202.84V77.57000000000001H184.97z" style="fill: inherit;"/><path d="M202.84 59.7H220.71V77.57000000000001H202.84z" style="fill: inherit;"/><path d="M220.72 59.7H238.59V77.57000000000001H220.72z" style="fill: inherit;"/><path d="M238.59 59.7H256.46V77.57000000000001H238.59z" style="fill: inherit;"/><path d="M256.46 59.7H274.33V77.57000000000001H256.46z" style="fill: inherit;"/><path d="M274.33 59.7H292.2V77.57000000000001H274.33z" style="fill: inherit;"/><path d="M-11.61 77.58H6.260000000000002V95.45H-11.61z" style="fill: inherit;"/><path d="M6.26 77.58H24.130000000000003V95.45H6.26z" style="fill: inherit;"/><path d="M24.13 77.58H42V95.45H24.13z" style="fill: inherit;"/><path d="M42.01 77.58H59.879999999999995V95.45H42.01z" style="fill: inherit;"/><path d="M59.88 77.58H77.75V95.45H59.88z" style="fill: inherit;"/><path d="M77.75 77.58H95.62V95.45H77.75z" style="fill: inherit;"/><path d="M95.62 77.58H113.49000000000001V95.45H95.62z" style="fill: inherit;"/><path d="M113.49 77.58H131.35999999999999V95.45H113.49z" style="fill: inherit;"/><path d="M131.36 77.58H149.23000000000002V95.45H131.36z" style="fill: inherit;"/><path d="M149.23 77.58H167.1V95.45H149.23z" style="fill: inherit;"/><path d="M167.1 77.58H184.97V95.45H167.1z" style="fill: inherit;"/><path d="M184.97 77.58H202.84V95.45H184.97z" style="fill: inherit;"/><path d="M202.84 77.58H220.71V95.45H202.84z" style="fill: inherit;"/><path d="M220.72 77.58H238.59V95.45H220.72z" style="fill: inherit;"/><path d="M238.59 77.58H256.46V95.45H238.59z" style="fill: inherit;"/><path d="M256.46 77.58H274.33V95.45H256.46z" style="fill: inherit;"/><path d="M274.33 77.58H292.2V95.45H274.33z" style="fill: inherit;"/><path d="M-11.61 95.45H6.260000000000002V113.32000000000001H-11.61z" style="fill: inherit;"/><path d="M6.26 95.45H24.130000000000003V113.32000000000001H6.26z" style="fill: inherit;"/><path d="M24.13 95.45H42V113.32000000000001H24.13z" style="fill: inherit;"/><path d="M42.01 95.45H59.879999999999995V113.32000000000001H42.01z" style="fill: inherit;"/><path d="M59.88 95.45H77.75V113.32000000000001H59.88z" style="fill: inherit;"/><path d="M77.75 95.45H95.62V113.32000000000001H77.75z" style="fill: inherit;"/><path d="M95.62 95.45H113.49000000000001V113.32000000000001H95.62z" style="fill: inherit;"/><path d="M113.49 95.45H131.35999999999999V113.32000000000001H113.49z" style="fill: inherit;"/><path d="M131.36 95.45H149.23000000000002V113.32000000000001H131.36z" style="fill: inherit;"/><path d="M149.23 95.45H167.1V113.32000000000001H149.23z" style="fill: inherit;"/><path d="M167.1 95.45H184.97V113.32000000000001H167.1z" style="fill: inherit;"/><path d="M184.97 95.45H202.84V113.32000000000001H184.97z" style="fill: inherit;"/><path d="M202.84 95.45H220.71V113.32000000000001H202.84z" style="fill: inherit;"/><path d="M220.72 95.45H238.59V113.32000000000001H220.72z" style="fill: inherit;"/><path d="M238.59 95.45H256.46V113.32000000000001H238.59z" style="fill: inherit;"/><path d="M256.46 95.45H274.33V113.32000000000001H256.46z" style="fill: inherit;"/><path d="M274.33 95.45H292.2V113.32000000000001H274.33z" style="fill: inherit;"/><path d="M-11.61 113.32H6.260000000000002V131.19H-11.61z" style="fill: inherit;"/><path d="M6.26 113.32H24.130000000000003V131.19H6.26z" style="fill: inherit;"/><path d="M24.13 113.32H42V131.19H24.13z" style="fill: inherit;"/><path d="M42.01 113.32H59.879999999999995V131.19H42.01z" style="fill: inherit;"/><path d="M59.88 113.32H77.75V131.19H59.88z" style="fill: inherit;"/><path d="M77.75 113.32H95.62V131.19H77.75z" style="fill: inherit;"/><path d="M95.62 113.32H113.49000000000001V131.19H95.62z" style="fill: inherit;"/><path d="M113.49 113.32H131.35999999999999V131.19H113.49z" style="fill: inherit;"/><path d="M131.36 113.32H149.23000000000002V131.19H131.36z" style="fill: inherit;"/><path d="M149.23 113.32H167.1V131.19H149.23z" style="fill: inherit;"/><path d="M167.1 113.32H184.97V131.19H167.1z" style="fill: inherit;"/><path d="M184.97 113.32H202.84V131.19H184.97z" style="fill: inherit;"/><path d="M202.84 113.32H220.71V131.19H202.84z" style="fill: inherit;"/><path d="M220.72 113.32H238.59V131.19H220.72z" style="fill: inherit;"/><path d="M238.59 113.32H256.46V131.19H238.59z" style="fill: inherit;"/><path d="M256.46 113.32H274.33V131.19H256.46z" style="fill: inherit;"/><path d="M274.33 113.32H292.2V131.19H274.33z" style="fill: inherit;"/><path d="M-11.61 131.19H6.260000000000002V149.06H-11.61z" style="fill: inherit;"/><path d="M6.26 131.19H24.130000000000003V149.06H6.26z" style="fill: inherit;"/><path d="M24.13 131.19H42V149.06H24.13z" style="fill: inherit;"/><path d="M42.01 131.19H59.879999999999995V149.06H42.01z" style="fill: inherit;"/><path d="M59.88 131.19H77.75V149.06H59.88z" style="fill: inherit;"/><path d="M77.75 131.19H95.62V149.06H77.75z" style="fill: inherit;"/><path d="M95.62 131.19H113.49000000000001V149.06H95.62z" style="fill: inherit;"/><path d="M113.49 131.19H131.35999999999999V149.06H113.49z" style="fill: inherit;"/><path d="M131.36 131.19H149.23000000000002V149.06H131.36z" style="fill: inherit;"/><path d="M149.23 131.19H167.1V149.06H149.23z" style="fill: inherit;"/><path d="M167.1 131.19H184.97V149.06H167.1z" style="fill: inherit;"/><path d="M184.97 131.19H202.84V149.06H184.97z" style="fill: inherit;"/><path d="M202.84 131.19H220.71V149.06H202.84z" style="fill: inherit;"/><path d="M220.72 131.19H238.59V149.06H220.72z" style="fill: inherit;"/><path d="M238.59 131.19H256.46V149.06H238.59z" style="fill: inherit;"/><path d="M256.46 131.19H274.33V149.06H256.46z" style="fill: inherit;"/><path d="M274.33 131.19H292.2V149.06H274.33z" style="fill: inherit;"/><path d="M-11.61 149.06H6.260000000000002V166.93H-11.61z" style="fill: inherit;"/><path d="M6.26 149.06H24.130000000000003V166.93H6.26z" style="fill: inherit;"/><path d="M24.13 149.06H42V166.93H24.13z" style="fill: inherit;"/><path d="M42.01 149.06H59.879999999999995V166.93H42.01z" style="fill: inherit;"/><path d="M59.88 149.06H77.75V166.93H59.88z" style="fill: inherit;"/><path d="M77.75 149.06H95.62V166.93H77.75z" style="fill: inherit;"/><path d="M95.62 149.06H113.49000000000001V166.93H95.62z" style="fill: inherit;"/><path d="M113.49 149.06H131.35999999999999V166.93H113.49z" style="fill: inherit;"/><path d="M131.36 149.06H149.23000000000002V166.93H131.36z" style="fill: inherit;"/><path d="M149.23 149.06H167.1V166.93H149.23z" style="fill: inherit;"/><path d="M167.1 149.06H184.97V166.93H167.1z" style="fill: inherit;"/><path d="M184.97 149.06H202.84V166.93H184.97z" style="fill: inherit;"/><path d="M202.84 149.06H220.71V166.93H202.84z" style="fill: inherit;"/><path d="M220.72 149.06H238.59V166.93H220.72z" style="fill: inherit;"/><path d="M238.59 149.06H256.46V166.93H238.59z" style="fill: inherit;"/><path d="M256.46 149.06H274.33V166.93H256.46z" style="fill: inherit;"/><path d="M274.33 149.06H292.2V166.93H274.33z" style="fill: inherit;"/><path d="M-11.61 166.93H6.260000000000002V184.8H-11.61z" style="fill: inherit;"/><path d="M6.26 166.93H24.130000000000003V184.8H6.26z" style="fill: inherit;"/><path d="M24.13 166.93H42V184.8H24.13z" style="fill: inherit;"/><path d="M42.01 166.93H59.879999999999995V184.8H42.01z" style="fill: inherit;"/><path d="M59.88 166.93H77.75V184.8H59.88z" style="fill: inherit;"/><path d="M77.75 166.93H95.62V184.8H77.75z" style="fill: inherit;"/><path d="M95.62 166.93H113.49000000000001V184.8H95.62z" style="fill: inherit;"/><path d="M113.49 166.93H131.35999999999999V184.8H113.49z" style="fill: inherit;"/><path d="M131.36 166.93H149.23000000000002V184.8H131.36z" style="fill: inherit;"/><path d="M149.23 166.93H167.1V184.8H149.23z" style="fill: inherit;"/><path d="M167.1 166.93H184.97V184.8H167.1z" style="fill: inherit;"/><path d="M184.97 166.93H202.84V184.8H184.97z" style="fill: inherit;"/><path d="M202.84 166.93H220.71V184.8H202.84z" style="fill: inherit;"/><path d="M220.72 166.93H238.59V184.8H220.72z" style="fill: inherit;"/><path d="M238.59 166.93H256.46V184.8H238.59z" style="fill: inherit;"/><path d="M256.46 166.93H274.33V184.8H256.46z" style="fill: inherit;"/><path d="M274.33 166.93H292.2V184.8H274.33z" style="fill: inherit;"/><path d="M-11.61 184.8H6.260000000000002V202.67000000000002H-11.61z" style="fill: inherit;"/><path d="M6.26 184.8H24.130000000000003V202.67000000000002H6.26z" style="fill: inherit;"/><path d="M24.13 184.8H42V202.67000000000002H24.13z" style="fill: inherit;"/><path d="M42.01 184.8H59.879999999999995V202.67000000000002H42.01z" style="fill: inherit;"/><path d="M59.88 184.8H77.75V202.67000000000002H59.88z" style="fill: inherit;"/><path d="M77.75 184.8H95.62V202.67000000000002H77.75z" style="fill: inherit;"/><path d="M95.62 184.8H113.49000000000001V202.67000000000002H95.62z" style="fill: inherit;"/><path d="M113.49 184.8H131.35999999999999V202.67000000000002H113.49z" style="fill: inherit;"/><path d="M131.36 184.8H149.23000000000002V202.67000000000002H131.36z" style="fill: inherit;"/><path d="M149.23 184.8H167.1V202.67000000000002H149.23z" style="fill: inherit;"/><path d="M167.1 184.8H184.97V202.67000000000002H167.1z" style="fill: inherit;"/><path d="M184.97 184.8H202.84V202.67000000000002H184.97z" style="fill: inherit;"/><path d="M202.84 184.8H220.71V202.67000000000002H202.84z" style="fill: inherit;"/><path d="M220.72 184.8H238.59V202.67000000000002H220.72z" style="fill: inherit;"/><path d="M238.59 184.8H256.46V202.67000000000002H238.59z" style="fill: inherit;"/><path d="M256.46 184.8H274.33V202.67000000000002H256.46z" style="fill: inherit;"/><path d="M274.33 184.8H292.2V202.67000000000002H274.33z" style="fill: inherit;"/><path d="M-11.61 202.67H6.260000000000002V220.54H-11.61z" style="fill: inherit;"/><path d="M6.26 202.67H24.130000000000003V220.54H6.26z" style="fill: inherit;"/><path d="M24.13 202.67H42V220.54H24.13z" style="fill: inherit;"/><path d="M42.01 202.67H59.879999999999995V220.54H42.01z" style="fill: inherit;"/><path d="M59.88 202.67H77.75V220.54H59.88z" style="fill: inherit;"/><path d="M77.75 202.67H95.62V220.54H77.75z" style="fill: inherit;"/><path d="M95.62 202.67H113.49000000000001V220.54H95.62z" style="fill: inherit;"/><path d="M113.49 202.67H131.35999999999999V220.54H113.49z" style="fill: inherit;"/><path d="M131.36 202.67H149.23000000000002V220.54H131.36z" style="fill: inherit;"/><path d="M149.23 202.67H167.1V220.54H149.23z" style="fill: inherit;"/><path d="M167.1 202.67H184.97V220.54H167.1z" style="fill: inherit;"/><path d="M184.97 202.67H202.84V220.54H184.97z" style="fill: inherit;"/><path d="M202.84 202.67H220.71V220.54H202.84z" style="fill: inherit;"/><path d="M220.72 202.67H238.59V220.54H220.72z" style="fill: inherit;"/><path d="M238.59 202.67H256.46V220.54H238.59z" style="fill: inherit;"/><path d="M256.46 202.67H274.33V220.54H256.46z" style="fill: inherit;"/><path d="M274.33 202.67H292.2V220.54H274.33z" style="fill: inherit;"/><path d="M-11.61 220.54H6.260000000000002V238.41H-11.61z" style="fill: inherit;"/><path d="M6.26 220.54H24.130000000000003V238.41H6.26z" style="fill: inherit;"/><path d="M24.13 220.54H42V238.41H24.13z" style="fill: inherit;"/><path d="M42.01 220.54H59.879999999999995V238.41H42.01z" style="fill: inherit;"/><path d="M59.88 220.54H77.75V238.41H59.88z" style="fill: inherit;"/><path d="M77.75 220.54H95.62V238.41H77.75z" style="fill: inherit;"/><path d="M95.62 220.54H113.49000000000001V238.41H95.62z" style="fill: inherit;"/><path d="M113.49 220.54H131.35999999999999V238.41H113.49z" style="fill: inherit;"/><path d="M131.36 220.54H149.23000000000002V238.41H131.36z" style="fill: inherit;"/><path d="M149.23 220.54H167.1V238.41H149.23z" style="fill: inherit;"/><path d="M167.1 220.54H184.97V238.41H167.1z" style="fill: inherit;"/><path d="M184.97 220.54H202.84V238.41H184.97z" style="fill: inherit;"/><path d="M202.84 220.54H220.71V238.41H202.84z" style="fill: inherit;"/><path d="M220.72 220.54H238.59V238.41H220.72z" style="fill: inherit;"/><path d="M238.59 220.54H256.46V238.41H238.59z" style="fill: inherit;"/><path d="M256.46 220.54H274.33V238.41H256.46z" style="fill: inherit;"/><path d="M274.33 220.54H292.2V238.41H274.33z" style="fill: inherit;"/><path d="M-11.61 238.41H6.260000000000002V256.28H-11.61z" style="fill: inherit;"/><path d="M6.26 238.41H24.130000000000003V256.28H6.26z" style="fill: inherit;"/><path d="M24.13 238.41H42V256.28H24.13z" style="fill: inherit;"/><path d="M42.01 238.41H59.879999999999995V256.28H42.01z" style="fill: inherit;"/><path d="M59.88 238.41H77.75V256.28H59.88z" style="fill: inherit;"/><path d="M77.75 238.41H95.62V256.28H77.75z" style="fill: inherit;"/><path d="M95.62 238.41H113.49000000000001V256.28H95.62z" style="fill: inherit;"/><path d="M113.49 238.41H131.35999999999999V256.28H113.49z" style="fill: inherit;"/><path d="M131.36 238.41H149.23000000000002V256.28H131.36z" style="fill: inherit;"/><path d="M149.23 238.41H167.1V256.28H149.23z" style="fill: inherit;"/><path d="M167.1 238.41H184.97V256.28H167.1z" style="fill: inherit;"/><path d="M184.97 238.41H202.84V256.28H184.97z" style="fill: inherit;"/><path d="M202.84 238.41H220.71V256.28H202.84z" style="fill: inherit;"/><path d="M220.72 238.41H238.59V256.28H220.72z" style="fill: inherit;"/><path d="M238.59 238.41H256.46V256.28H238.59z" style="fill: inherit;"/><path d="M256.46 238.41H274.33V256.28H256.46z" style="fill: inherit;"/><path d="M274.33 238.41H292.2V256.28H274.33z" style="fill: inherit;"/><path d="M-11.61 256.29H6.260000000000002V274.16H-11.61z" style="fill: inherit;"/><path d="M6.26 256.29H24.130000000000003V274.16H6.26z" style="fill: inherit;"/><path d="M24.13 256.29H42V274.16H24.13z" style="fill: inherit;"/><path d="M42.01 256.29H59.879999999999995V274.16H42.01z" style="fill: inherit;"/><path d="M59.88 256.29H77.75V274.16H59.88z" style="fill: inherit;"/><path d="M77.75 256.29H95.62V274.16H77.75z" style="fill: inherit;"/><path d="M95.62 256.29H113.49000000000001V274.16H95.62z" style="fill: inherit;"/><path d="M113.49 256.29H131.35999999999999V274.16H113.49z" style="fill: inherit;"/><path d="M131.36 256.29H149.23000000000002V274.16H131.36z" style="fill: inherit;"/><path d="M149.23 256.29H167.1V274.16H149.23z" style="fill: inherit;"/><path d="M167.1 256.29H184.97V274.16H167.1z" style="fill: inherit;"/><path d="M184.97 256.29H202.84V274.16H184.97z" style="fill: inherit;"/><path d="M202.84 256.29H220.71V274.16H202.84z" style="fill: inherit;"/><path d="M220.72 256.29H238.59V274.16H220.72z" style="fill: inherit;"/><path d="M238.59 256.29H256.46V274.16H238.59z" style="fill: inherit;"/><path d="M256.46 256.29H274.33V274.16H256.46z" style="fill: inherit;"/><path d="M274.33 256.29H292.2V274.16H274.33z" style="fill: inherit;"/><path d="M-11.61 274.16H6.260000000000002V292.03000000000003H-11.61z" style="fill: inherit;"/><path d="M6.26 274.16H24.130000000000003V292.03000000000003H6.26z" style="fill: inherit;"/><path d="M24.13 274.16H42V292.03000000000003H24.13z" style="fill: inherit;"/><path d="M42.01 274.16H59.879999999999995V292.03000000000003H42.01z" style="fill: inherit;"/><path d="M59.88 274.16H77.75V292.03000000000003H59.88z" style="fill: inherit;"/><path d="M77.75 274.16H95.62V292.03000000000003H77.75z" style="fill: inherit;"/><path d="M95.62 274.16H113.49000000000001V292.03000000000003H95.62z" style="fill: inherit;"/><path d="M113.49 274.16H131.35999999999999V292.03000000000003H113.49z" style="fill: inherit;"/><path d="M131.36 274.16H149.23000000000002V292.03000000000003H131.36z" style="fill: inherit;"/><path d="M149.23 274.16H167.1V292.03000000000003H149.23z" style="fill: inherit;"/><path d="M167.1 274.16H184.97V292.03000000000003H167.1z" style="fill: inherit;"/><path d="M184.97 274.16H202.84V292.03000000000003H184.97z" style="fill: inherit;"/><path d="M202.84 274.16H220.71V292.03000000000003H202.84z" style="fill: inherit;"/><path d="M220.72 274.16H238.59V292.03000000000003H220.72z" style="fill: inherit;"/><path d="M238.59 274.16H256.46V292.03000000000003H238.59z" style="fill: inherit;"/><path d="M256.46 274.16H274.33V292.03000000000003H256.46z" style="fill: inherit;"/><path d="M274.33 274.16H292.2V292.03000000000003H274.33z" style="fill: inherit;"/></g></g></g></svg>