<svg xmlns="http://www.w3.org/2000/svg" xmlns:xlink="http://www.w3.org/1999/xlink" preserveAspectRatio="xMidYMid meet" version="1.0" viewBox="36.4 109.1 427.2 281.8" zoomAndPan="magnify" style="fill: rgb(255, 145, 77);" original_string_length="26568" width="179.3206142819539px" height="118.35160542608956px"><g id="__id1_s3bngpxo6"><path d="M99.81,223.17c0.54-0.26,1.09-0.51,1.63-0.77c0.58-0.27,1.15-0.53,1.73-0.79c-0.05-0.08-0.09-0.16-0.13-0.25 c-0.57,0.25-1.13,0.51-1.7,0.77c-0.56,0.26-1.12,0.52-1.67,0.78C99.71,223,99.76,223.08,99.81,223.17 M108.59,213.49 c-0.16-0.06-0.35-0.22-0.52-0.17c-0.31,0.09-0.6,0.31-0.88,0.47c0.18,0.07,0.37,0.14,0.55,0.21 C108.02,213.83,108.3,213.66,108.59,213.49z M109.59,218.76c-0.12,0.03-0.24,0.06-0.35,0.08c0.02,0.03,0.04,0.06,0.06,0.1 C109.39,218.88,109.49,218.82,109.59,218.76z M91.65,248.47c-1.88,0.64-3.76,1.29-5.64,1.94c-2.39,0.83-4.78,1.67-7.17,2.51 c0.02,0.06,0.05,0.12,0.07,0.17c2.41-0.76,4.82-1.52,7.24-2.27c1.57-0.48,3.13-0.98,4.7-1.47 C91.11,249.06,91.38,248.77,91.65,248.47z M386.72,165.26c5.24-1.24,10.47-2.41,15.75-3.48c4.58-0.91,9.11-1.73,13.73-2.43 c-4.65,0.55-9.18,1.26-13.79,2.09c-5.43,0.96-10.75,2.08-16.12,3.3C386.28,165.01,386.44,165.17,386.72,165.26z M419.08,160.12 c1.91,0.19,3.84-0.1,5.74-0.28c1.76-0.17,3.52-0.39,5.29-0.54c-0.03-0.1-0.06-0.19-0.09-0.29 C426.37,159.24,422.72,159.63,419.08,160.12z M407.43,161.92c0.1,0.04,0.21,0.07,0.31,0.11c1.84-0.36,3.68-0.71,5.53-1.04 c-0.02-0.05-0.04-0.1-0.06-0.16C411.29,161.18,409.36,161.54,407.43,161.92z M429.59,157.9c0.4,0,0.79,0,1.19,0c0-0.1,0-0.19,0-0.29 c-0.4,0.04-0.79,0.08-1.19,0.14C429.56,157.76,429.59,157.87,429.59,157.9z M72.05,254.52c-4.46,1.24-9.3,2.36-13.49,4.34 C63.21,257.18,67.29,256.58,72.05,254.52z M82.51,293.5c0.3-0.17,0.41-0.43,0.62-0.67c-0.41,0.1-0.88,0.14-1.26,0.31 c-0.47,0.22-1.18,0.8-1.62,1.12C80.79,294.08,82.05,293.75,82.51,293.5z M55.11,259.53c-0.66,0.24-1.31,0.48-1.97,0.72 c0.02,0.04,0.04,0.09,0.06,0.13c0.66-0.24,1.31-0.48,1.97-0.72C55.14,259.62,55.13,259.57,55.11,259.53z M105,299.52 c0.62-0.17,1.25-0.35,1.87-0.52c0.08-0.05,0.15-0.09,0.23-0.14c-0.16,0.05-0.33,0.1-0.49,0.15 C106.08,299.18,105.54,299.35,105,299.52z M140.24,352.72c-0.44-0.03-1.1-0.15-1.51-0.1c-5.55,0.92-11.1,1.8-16.66,2.64 c-2.88,0.42-5.76,0.83-8.65,1.22c2.91-0.26,5.79-0.57,8.69-0.92c5.46-0.63,10.86-1.42,16.29-2.26 C138.99,353.2,139.66,352.91,140.24,352.72z M111.3,355.58c-1.36-0.27-2.69-0.05-4.05,0.09c-1.19,0.13-2.36,0.33-3.54,0.49 c0.02,0.1,0.05,0.19,0.07,0.29C106.3,356.19,108.8,355.9,111.3,355.58z M119.91,354.49c-0.08-0.04-0.16-0.08-0.24-0.13 c-1.38,0.22-2.76,0.44-4.14,0.66c0.02,0.05,0.03,0.11,0.05,0.16C117.03,354.95,118.47,354.72,119.91,354.49z M104.14,357.57 c-0.26,0-0.51,0.01-0.77,0.01c0.01,0.09,0.01,0.19,0.02,0.28c0.25-0.04,0.51-0.09,0.76-0.15 C104.17,357.71,104.15,357.59,104.14,357.57z M463.58,267.39c-0.11,0.03-0.21,0.06-0.32,0.08c0.05,0.04,0.1,0.08,0.15,0.11 C463.46,267.52,463.52,267.45,463.58,267.39z M151.84,358.92c0.43-0.1,0.86-0.19,1.29-0.28 C152.7,358.72,152.27,358.82,151.84,358.92z M430.53,202.71c0.55-0.18,1.11-0.36,1.66-0.54c-0.59,0.15-1.17,0.3-1.76,0.45 C430.46,202.65,430.5,202.68,430.53,202.71L430.53,202.71z M433.83,202.88c1,0.15,1.88-0.17,2.82-0.43c0.84-0.23,1.65-0.54,2.48-0.8 c-0.04-0.09-0.07-0.18-0.11-0.28C437.28,201.84,435.56,202.35,433.83,202.88z M430.83,203.85l0.23-0.08 c-0.02-0.05-0.04-0.1-0.07-0.15l-0.13,0.05C430.84,203.73,430.83,203.79,430.83,203.85z M413.74,279.85 c0.04,0.09,0.08,0.18,0.12,0.26l1.63-0.7c-0.52,0.12-1.04,0.23-1.55,0.36L413.74,279.85z M438.56,200.32 c0.19-0.03,0.38-0.06,0.58-0.08c-0.02-0.09-0.04-0.19-0.06-0.28c-0.18,0.07-0.37,0.14-0.55,0.22 C438.51,200.18,438.55,200.3,438.56,200.32z M311.49,343.69c2.65-1.07,5.24-2.31,7.87-3.43c2.33-1,4.72-1.88,7.08-2.79 c0.17-0.06,0.4,0.05,0.57,0.08c-0.02,0.05-0.05,0.2-0.1,0.22c-6.47,2.77-12.93,5.56-19.39,8.36c-0.24,0.1-0.66,0.08-0.93,0.11 c0.13-0.68,0.73-0.76,1.22-1.05c0.54-0.33,1.09-0.65,1.63-0.98c-0.3,0.06-0.64,0.06-0.92,0.19c-2.86,1.27-5.72,2.56-8.57,3.87 c-0.46,0.21-0.89,0.47-1.35,0.69c-0.99,0.46-1.99,0.92-2.99,1.37c-3.61,1.83-7.12,3.38-10.87,4.87c-2.71,1.07-5.39,2.22-8.17,3.12 c-9.7,3.16-19.54,6.07-29.47,8.44c-7.82,1.87-15.66,3.71-23.54,5.32c-4.25,0.87-8.53,1.57-12.79,2.39 c-9.66,1.86-19.31,3.72-28.96,5.62c-6.77,1.33-13.55,2.63-20.27,4.18c-1.89,0.44-3.77,0.95-5.64,1.46c0.89,0.25,1.77,0.51,2.66,0.75 c-0.3,0.19-0.68,0.49-1,0.62c-0.72,0.28-1.44,0.55-2.18,0.79c-0.72,0.23-1.45,0.38-2.17,0.61c-1.74,0.55-1.88,0.68-1.32,2.42 c0.78-0.14,1.57-0.28,2.36-0.41c2.31-0.38,4.62-0.75,6.94-1.07c2.56-0.35,4.96-1.12,7.59-0.85c0.8,0.08,1.87-0.25,2.66-0.4 c3.75-0.74,7.5-1.45,11.26-2.15c10.45-1.95,20.91-3.77,31.37-5.68c4.29-0.78,8.59-1.51,12.87-2.35c4.62-0.91,9.2-1.96,13.8-2.93 c1.35-0.28,3.58-0.77,4.92-0.54c1.55,0.27,2.85-0.05,4.34-0.42c6.4-1.6,12.74-3.4,19.05-5.32c9.39-2.87,18.75-6.32,27.59-10.61 c0.84-0.41,1.65-0.83,2.47-1.28c0.69-0.43,1.28-0.8,2.02-1.17c4.03-1.93,8.14-3.73,12.21-5.58c4.41-2,8.76-4.1,13.22-6 c11.16-4.76,22.39-9.34,33.49-14.25c0.76-0.34,1.55-0.63,2.31-0.96c5.98-2.56,12.23-4.69,17.68-8.3c0.66-0.44,1.6-0.69,2.34-1 c1.57-0.64,3.16-1.23,4.72-1.91c3.88-1.69,7.72-3.46,11.62-5.1c7.31-3.07,14.68-6.03,22.03-9c5.24-2.12,10.47-4.27,15.72-6.36 c2.62-1.05,5.52-2.09,7.81-3.76c0.64-0.47,1.47-0.72,2.18-1.08c0.69-0.35,1.35-0.88,1.25-1.74c-0.06-0.52-0.05-1.06-0.07-1.58 c-0.62-0.02-1.23-0.04-1.85-0.04c1.79-1.89,3.36-1.58,5.24-2.88c-0.13-0.06-0.37-0.23-0.5-0.2c-3.4,1.22-6.77,2.5-10.13,3.82 c-0.15,0.07-0.31,0.4-0.42,0.55c0.69-0.01,1.39-0.02,2.08-0.03c-4.88,2.21-9.72,4.49-14.61,6.69c-10.11,4.55-20.63,8.37-30.95,12.44 c-6.02,2.37-12.01,4.79-18,7.24c-8.43,3.45-16.83,7-25.25,10.48c-6.25,2.58-12.53,5.1-18.82,7.6c-1.76,0.7-3.59,1.65-5.45,2 c-0.18-0.73,0.63-1.08,1.17-1.29c2.77-1.11,5.56-2.16,8.32-3.28c1.42-0.57,2.8-1.25,4.2-1.87c-6.96,2.25-13.52,5.26-20.3,7.95 c-4.43,1.76-8.86,3.69-13.06,5.94C310.04,344.05,310.79,343.97,311.49,343.69z M433.6,292.61c-3.84,1.59-7.66,3.22-11.46,4.87 c-0.14,0.06-0.21,0.3-0.3,0.42c0.19,0.02,0.51,0.12,0.68,0.05c3.82-1.6,7.65-3.19,11.47-4.78c0.55-0.24,1.28-0.75,1.8-1.07 C435.17,292.24,434.18,292.38,433.6,292.61z M355.6,325.21c3-1.32,6.01-2.76,9.21-3.54c0.32-0.08,0.64-0.23,0.94-0.36 c0.48-0.19,1.56-0.61,1.24-1.31c-4.41,1.39-8.45,3.68-12.67,5.52C354.75,325.43,355.2,325.39,355.6,325.21z M399.92,306.79 c-0.48,0.07-1.44,0.12-1.86,0.29c-4.91,2.14-10.02,3.79-14.79,6.27C388.85,311.14,394.51,309.47,399.92,306.79z M418.99,298.82 c-2.33,0.9-4.68,1.68-6.79,3.08C415.35,300.81,416.21,300.59,418.99,298.82z M376.05,316.67c-0.3-0.09-0.56-0.33-0.9-0.24 c-2.12,0.57-3.39,1.41-5.26,2.54c2.23-0.51,4.07-1.67,6.2-2.36C376.08,316.62,376.06,316.65,376.05,316.67z M346.88,328.35 c2.13-0.52,3.19-0.99,5.09-2.04C349.89,326.95,348.82,327.19,346.88,328.35z M443.47,282.94c-0.4,0.16-0.8,0.32-1.2,0.49 c-0.42,0.17-0.84,0.34-1.26,0.51c0.04,0.08,0.08,0.17,0.12,0.25c0.41-0.17,0.82-0.33,1.23-0.5c0.41-0.17,0.82-0.33,1.23-0.5 C443.54,283.11,443.51,283.03,443.47,282.94z M376.11,316.58c1.47-0.52,2.97-1.06,4.26-1.96c-1.54,0.41-3.15,0.91-4.31,2.04 C376.05,316.67,376.08,316.6,376.11,316.58z M407.69,303.83c0.54-0.19,1.07-0.44,1.59-0.68c0.03-0.01,0.04-0.18-0.03-0.2 c-0.65-0.19-1.44,0.3-2.01,0.58c-0.08,0.04-0.1,0.17-0.14,0.24C407.29,303.8,407.51,303.9,407.69,303.83z M437.77,291.14 c0.1,0.06,0.28,0.24,0.39,0.21c0.21-0.06,0.4-0.25,0.58-0.37c-0.14-0.08-0.28-0.17-0.42-0.25 C438.14,290.87,437.95,291.01,437.77,291.14z M436.44,285.99c0.08-0.02,0.17-0.03,0.25-0.05c-0.02-0.03-0.04-0.06-0.05-0.1 C436.57,285.89,436.51,285.94,436.44,285.99z M127.86,202.5c1-0.47,2-0.93,3.01-1.39c0.49-0.22,0.96-0.47,1.36-0.83 c-2.2,0.74-4.3,1.72-6.41,2.68C126.49,202.8,127.17,202.64,127.86,202.5z M123.56,217.1c0.05-0.53,0.11-1.06,0.16-1.59 c-0.22-0.04-0.55-0.16-0.75-0.12c-0.55,0.15-1.23,0.27-1.71,0.59c-2.42,1.61-5.31,2.36-7.9,3.67c-0.76,0.39-1.47,0.46-2.01-0.3 c0.82-0.57,1.65-1.14,2.48-1.7c-0.06-0.09-0.11-0.18-0.17-0.26c-1.34,0.49-2.67,0.98-4.01,1.49c0.07-0.76,0.14-1.51,0.21-2.27 c1.22-1.12,2.44-2.24,3.67-3.35c-0.04-0.71-0.74-0.58-1.22-0.44c-0.91,0.26-1.92,0.36-2.1-0.81c0.11-0.16,0.23-0.31,0.36-0.45 c-2.77,1.08-5.5,2.25-8.21,3.5c0.98-0.14,1.96-0.28,2.94-0.41c-0.19,0.19-0.45,0.55-0.67,0.66c-4.86,1.96-9.6,4.16-14.28,6.51 c-0.17,0.07-0.48-0.03-0.68-0.06c2.49-1.89,4.83-2.19,7.34-4.53c-0.86,0.14-1.72,0.29-2.58,0.43c0-0.55,0.05-1.11-0.01-1.66 c-0.1-1,1.17-1.78,1.91-2.18c1.07-0.57,2.24-1.02,3.25-1.68c3.15-2.06,6.89-3.5,10.51-4.73c-0.81-0.84-1.21-1.23-2.6-1.06 c0.88-0.63,2.33-1.34,2.3-2.57c-0.03-0.24,0.35-0.65,0.54-0.76c2.03-1.25,2.56-2.47,4.2-3.95c-0.81-0.6-2.06,0.75-2.99,0.48 c0.22-0.24,0.47-0.48,0.67-0.74c1.95-2.58,4.73-4.27,7.73-5.38c1.18-0.44,2.31-1.01,3.47-1.51c6.53-2.82,13.11-5.54,19.8-7.96 c3.73-1.36,7.54-2.44,11.33-3.63c1.87-0.59,3.69-1.32,5.57-1.89c7.09-2.14,14.23-4.08,21.39-5.98c0.58-0.15,1.14-0.37,1.71-0.56 c1.59-0.52,3.16-1.22,4.81-1.52c5.35-0.96,10.49-2.63,15.76-3.91c1.75-0.43,3.46-1.01,5.17-1.57c0.32-0.12,0.83-0.63,1.12-0.86 c-0.4,0.01-0.98-0.02-1.36,0.04c-3.55,0.66-7,1.8-10.47,2.8c-2.98,0.86-5.99,1.6-9.01,2.29c-2.22,0.5-4.47,0.81-6.72,1.12 c7.32-2.08,14.67-4.09,21.99-6.18c7.35-2.1,14.74-3.96,21.99-6.43c-0.4-0.09-1.28-0.38-1.65-0.33c-1.6,0.32-3.18,0.72-4.76,1.08 c0.22-0.63,0.51-0.57,1.05-0.74c4.99-1.8,10.02-3.47,15.02-5.25c5.39-1.92,10.59-4.37,15.79-6.74c3.97-1.82,7.88-3.71,11.79-5.64 c2.17-1.03,4.28-1.92,6.52-2.77c10.07-3.71,20.66-6.64,31-9.53c0.98-0.27,1.96-0.55,2.96-0.75c0.81-0.17,2.17-0.6,2.48,0.42 c0.16,0.37,1.2,0.41,1.55,0.39c1.59-0.18,3.17-0.46,4.73-0.78c1.6-0.33,3.17-0.78,4.77-1.15c0.54-0.12,1.37-0.29,1.82,0.13 c0.67,0.61,2.2,0.25,3.01,0.11c2.42-0.41,4.83-0.85,7.25-1.25c0.65-0.11,1.42-0.28,2.08-0.24c3.03,0.22,6.06-0.38,9.08-0.63 c2.05-0.17,4.14-0.29,6.2-0.18c0.79,0.04,1.88,0.31,2.25,1.09c0.71,1.52,2.65,1.54,4.08,1.38c0.85-0.09,1.67-0.35,2.51-0.47 c0.36-0.05,0.78,0.08,1.14,0.13c-0.11,0.25-0.18,0.61-0.38,0.77c-1.78,1.34-2.38,2.95-2.86,5.03c-0.3,1.33-0.75,2.55-1.48,3.71 c-1.04,1.78,0.16,1.74,1.75,1.69c0.42-0.02,0.86,0.02,1.28-0.06c2.22-0.44,3.74,0.24,5.82,0.72c0.13,0.04,0.29,0.36,0.39,0.48 c-0.37,0.17-0.73,0.43-1.13,0.51c-5.65,1.12-11.29,2.41-16.9,3.75c2.5-0.37,5-0.73,7.49-1.1c3.83-0.57,7.66-1.14,11.48-1.74 c0.92-0.14,2.09-0.45,3.01-0.35c2.99,0.32,5.94-0.43,8.89-0.75c2.73-0.3,5.46-0.64,8.18-1.01c0.88-0.12,1.75-0.24,2.62-0.37 c0.53,1.85,0.3,1.89-1.59,2.4c-0.83,0.22-1.68,0.37-2.51,0.59c-0.87,0.23-1.74,0.5-2.6,0.77c-0.39,0.13-0.85,0.42-1.22,0.62 c1.02,0.26,2.04,0.52,3.06,0.78c-2.24,0.5-4.48,1-6.74,1.42c-7.29,1.35-14.61,2.46-21.92,3.63c-0.78,0.12-11.29,1.82-11.29,1.87 c-2.94,0.38-5.71,0.84-8.41,1.38c-0.31,0.24-0.62,0.51-0.71,0.73c-0.05,0.17,0.02,0.34,0.13,0.51c1.99-0.4,3.99-0.74,5.99-1.02 c1.04-0.15,2.08-0.28,3.13-0.39c0-0.02,0.71-0.05,0.77-0.05c0.09,0,0.18,0,0.27,0c1.53-0.35,3.06-0.68,4.59-1 c3.74-0.76,7.5-1.42,11.27-2c0.29-0.05,0.66,0.04,0.96,0.07c0.09,0.35,0.18,0.7,0.28,1.05c-2.56,1.62-6.69,2.42-9.61,3.13 c-0.28,0.07-0.55,0.13-0.83,0.2c0.92-0.1,1.83-0.23,2.75-0.33c0.51-0.05,1.21-0.09,1.56,0.37c0.54,0.7,1.92,0.53,2.69,0.49 c2.39-0.12,4.78-0.3,7.16-0.47c0.68-0.05,1.48-0.15,2.16-0.05c3.21,0.49,6.61,0.08,9.84-0.02c2.3-0.07,4.64-0.12,6.94,0.02 c0.8,0.05,2.08,0.31,2.46,1.12c0.74,1.57,3.01,1.53,4.46,1.36c0.91-0.1,1.77-0.38,2.66-0.53c0.37-0.06,0.78,0.05,1.15,0.09 c-0.1,0.25-0.16,0.61-0.35,0.78c-0.46,0.37-0.85,0.74-1.18,1.13c1.39-0.25,2.76-0.55,4.13-0.98c2.04-0.62,3.97-1.02,6.07-1.39 c0.87-0.16,1.73-0.31,2.6-0.46c9.53-1.63,19.34-2.88,29.02-2.98c5.11-0.05,10.27,0.35,15.31,1.22c1.53,0.26,3.05,0.66,4.52,1.16 c5.8,2.06,6.04,2.67-0.09,2.36c-1.53-0.08-3.06,0.05-4.59,0.04c-1.52-0.01-3.04-0.17-4.57-0.18c0.56,0.62,1.11,1.25,1.66,1.88 c-2.75,0.19-5.48,0.59-8.18,1.13c0.94,0.82,3.85,0.21,4.73,0.95c0.32,0.72-2.57,0.52-3.03,1.02c-0.5,0.91,3.31,1.62,1.87,2.57 c1.36,0.47,2.71,0.97,4.04,1.49c-1.7,0.25-3.41,0.56-5.07,1.02c-0.77,0.21-3.13,0.57-3.14,1.6c-7.59,1.09-15.31,1.51-22.74,3.5 c6.01-0.39,12.05-1.28,18.07-1.35c0.89,0.51,1.78,1.03,2.66,1.56c-1.34,0.19-2.67,0.41-4,0.65c-1.03,0.93-3.09,2.05-2.92,3.64 c1.69,0.48,3.37,1.01,5.02,1.59c-0.75,0.41-1.49,0.83-2.23,1.26c0.76,0.3,1.52,0.62,2.27,0.94c-1.28,0.05-2.57,0.12-3.85,0.21 c-0.96,1.01,1.32,1.33,1.55,2.07c-1.88,0.81-3.75,1.66-5.6,2.53c1.08,0.53,2.16,1.09,3.22,1.67c-1.49,1.88,0.48,3.26,1.97,4.19 c-0.96,0.29-1.92,0.59-2.88,0.9c1.26,1.12,1.89,2.68,3.11,3.86c0.29,0.24,0.62,0.46,0.98,0.65c2.51-0.65,5.04-1.24,7.58-1.74 c2.38-0.47,4.82-0.76,7.24-0.98c0.72-0.07,1.47-0.03,2.18,0.05c2.93,0.42,3.08,0.93,0.5,2.28c-0.67,0.34-1.26,0.81-1.93,1.13 c-0.61,0.3-1.39,0.46-2.04,0.69c0.39,0.51,0.78,1.02,1.16,1.53c-1.19,0.71-2.33,1.48-3.45,2.3c0.62,0.68,1.86-0.25,2.39,0.31 c0.32,0.68-1.05,0.86-1.15,1.42c-0.02,0.96,1.88,1.13,1.44,2.25c0.72,0.26,1.44,0.53,2.15,0.79c-0.7,0.57-1.41,1.15-2.05,1.8 c-0.5,0.51-1.35,1.12-1.09,1.94c-3.3,1.86-7.16,2.45-10.51,4.31c3.01-0.35,5.82-1.3,8.78-1.8c0.55,0.43,1.09,0.87,1.63,1.31 c-0.6,0.31-1.19,0.62-1.78,0.94c-0.34,1.24-1.08,2.35-0.61,3.69c0.95,0.4,1.89,0.81,2.82,1.25c-0.27,0.46-0.53,0.91-0.8,1.37 c0.44,0.25,0.88,0.51,1.32,0.77c-0.61,0.14-1.22,0.29-1.83,0.44c-0.25,1.04,0.94,1.2,1.23,1.92c-0.55,0.67-1.1,1.34-1.65,2.01 c1.96-0.53,3.92-1.13,5.89-1.81l0.02,0.07c-2,0.69-4,1.3-5.99,1.84c-0.16,0.19-0.31,0.38-0.47,0.57c0.67,0.49,1.33,1,1.98,1.52 c-0.28,1.71,0.71,2.92,1.92,3.98c-0.41,0.33-0.81,0.66-1.22,0.99c0.94,1.11,1.51,2.48,2.42,3.62c0.98,1.23,2.55,1.42,3.84,2.18 c-0.56,0.43-1.16,0.83-1.7,1.29c-1.54,1.35-1.97,1.85-1.58,2.76c3.27-0.94,5.85-1.54,7.62-1.73l0.01,0.08 c-1.76,0.18-4.34,0.78-7.59,1.72c0.19,0.4,0.52,0.89,0.99,1.56c0.25,0.37,0.65,0.63,0.94,0.98c0.15,0.17,0.39,0.46,0.38,0.7 c-0.02,0.5,0.13,0.89,0.57,1.16c1.17,0.7,1.27,1.76,0.76,2.93c-0.09,0.21-0.13,0.47-0.19,0.69c-1.72,1.04-3.96,1.4-5.92,2.33 c-0.16,0.51-0.21,1.15-0.55,1.58c-0.4,0.5-1.03,0.77-1.13,1.49c2.39-0.84,4.8-1.65,7.22-2.39c-0.24,0.92-1.02,1.24-1.84,1.51 c-1.57,0.52-3.13,1.07-4.68,1.64c-0.66,0.24-1.31,0.49-1.96,0.75c1.38-0.21,2.77-0.38,4.15-0.56c0.57-0.08,1.15-0.02,1.72-0.02 c-0.13,0.16-0.32,0.47-0.49,0.54c-2.02,0.6-4.05,1.19-6.12,1.63c-0.16,0.03-0.32,0.07-0.47,0.1l-0.04,0.32 c0.19,0.06,0.49,0.22,0.66,0.2c0.47-0.08,1.09-0.12,1.5-0.35c2.25-1.24,3.82-1.28,6.11-2.05c0.71-0.25,1.07,0.16,1.33,0.77 c-0.55,0.34-1.1,0.68-1.65,1.01c0.04,0.1,0.08,0.19,0.12,0.29c0.86-0.15,1.73-0.29,2.6-0.4c-0.03,0.69-0.05,1.37-0.08,2.06 c-0.55,0.54-1.1,1.08-1.67,1.61c0.73,0.01,1.45,0.11,2.12,0.34c1.06,0.28,3.47-0.11,4.65-0.21c0.55,0.65,1.09,1.3,1.65,1.94 c-1.57,0.89-3.18,1.22-4.9,1.66c-1.41,0.37-2.83,0.69-4.25,1c-0.81,0.18-1.61,0.34-2.42,0.5c-1.22,0.5-2.44,0.99-3.66,1.5l0.01,0.02 l-0.14,0.03c-3.22,1.33-6.44,2.69-9.64,4.07c-0.54,0.23-1.06,0.49-1.52,0.85c3.71-1.25,7.21-2.95,10.91-4.07 c3-0.91,5.96-2.47,9.07-2.59c-0.18,0.41-0.36,0.82-0.55,1.23c0.65,1.07,0.95,2.05,2.12,2.31c-0.43,0.31-0.92,0.57-1.2,0.96 c2.07-0.42,4.13-0.91,6.18-1.43c1.1-0.28,2.2-0.58,3.29-0.9c1.13,0.31-0.2,1.03-0.62,1.23c-1.4,0.68-2.88,1.28-4.38,1.7 c-1.99,0.56-4,1.1-6.03,1.6c-0.76,0.71-1.3,1.64-2.11,2.33c0.64,0.7,1.59-0.38,2.28,0.05c-0.16,0.19-0.35,0.38-0.49,0.59 c-1.51,2.25-3.92,3.45-6.45,4.22c-1.12,0.34-2.21,0.84-3.3,1.27c-7.67,3-15.27,6.17-22.89,9.29c-5.19,2.12-10.46,4.07-15.66,6.18 c-2.77,1.13-5.48,2.41-8.25,3.55c-11.23,4.62-22.43,9.29-33.6,14.06c-0.93,0.4-1.83,0.86-2.75,1.29c-2.55,1.19-5.03,2.58-7.66,3.57 c-8.16,3.09-15.96,6.86-23.96,10.3c-2.42,1.04-4.77,2.23-7.13,3.41c-0.44,0.24-1.05,0.89-1.45,1.24c0.57-0.14,1.28-0.28,1.82-0.48 c5.06-1.95,9.96-4.4,14.89-6.67c4.58-2.11,9.23-4.1,13.9-6.02c3.5-1.44,7.09-2.69,10.67-3.92c-11.25,4.97-22.47,10.01-33.64,15.17 c-8.37,3.86-17.05,7.6-25.2,11.84c0.38,0.05,1.2,0.24,1.53,0.14c1.54-0.55,3.05-1.19,4.56-1.8c-0.15,0.67-0.47,0.67-1,0.93 c-0.61,0.33-9.55,5.14-9.54,5.17c0.01,0.02-2.46,1.29-2.69,1.4c-7.88,3.97-16.14,7.42-24.52,10.16c-9.15,3-18.49,5.49-27.89,7.56 c-13.44,2.95-27.03,5.24-40.58,7.59c-1.04,0.18-2.08,0.36-3.13,0.48c-0.78,0.09-2.26,0.42-2.48-0.65c-0.13-0.38-1.17-0.52-1.52-0.53 c-1.59,0.03-3.18,0.17-4.76,0.35c-1.58,0.19-3.15,0.49-4.72,0.72c-0.53,0.08-1.34,0.17-1.74-0.28c-0.6-0.67-2.07-0.43-2.87-0.36 c-2.32,0.21-4.63,0.47-6.94,0.7c-0.62,0.06-1.36,0.19-1.97,0.1c-2.85-0.42-5.74,0.02-8.6,0.16c-1.97,0.1-3.96,0.16-5.92,0.04 c-0.78-0.05-1.83-0.32-2.2-1.09c-0.72-1.52-2.63-1.51-4.05-1.3c-0.85,0.12-1.66,0.42-2.5,0.58c-0.36,0.07-0.79-0.03-1.16-0.05 c0.09-0.26,0.14-0.62,0.33-0.8c1.73-1.46,2.28-3.06,2.73-5.19c0.29-1.36,0.73-2.59,1.48-3.77c1.1-1.85-0.26-1.74-1.86-1.64 c-0.45,0.04-0.92,0.02-1.37,0.12c-2.41,0.57-4.19-0.01-6.53-0.19c-0.15-0.03-0.35-0.31-0.48-0.43c0.42-0.23,0.83-0.54,1.29-0.67 c2.89-0.81,5.81-1.55,8.74-2.24c-0.32,0.05-0.64,0.08-0.97,0.1c-1.71,0.09-3.39,0.81-5.09,1.07c-2.8,0.43-5.62,0.79-8.44,1 c-1.63,0.12-3.19,0.32-4.77,0.74c-2.16,0.55-4.16,0.81-6.36,1.05c-0.1,0.01-0.21,0.03-0.31,0.04c-6.67,0.8-13.38,1.47-20.09,1.81 c-0.63,0.03-1.26,0.06-1.88,0.07c-4.43,0.23-8.58,0.27-13.02,0.04c-1.99-0.12-3.99-0.42-5.94-0.81c-13.93-3.08-10.85-2.86-0.3-2.39 c2.04,0.05,3.95-0.19,5.97-0.36c1.64-0.14,3.3-0.16,4.95-0.31c-0.66-0.56-1.31-1.13-1.96-1.69c2.92-0.49,5.83-1.21,8.7-1.96 c-1.17-0.74-4.26,0.17-5.28-0.49c-0.21-0.78,2.38-0.68,3.2-1.32c0.47-0.94-3.78-1.29-2.31-2.37c-1.52-0.32-3.02-0.68-4.53-1.06 c1.82-0.44,3.64-0.94,5.41-1.55c0.75-0.25,3.59-0.89,3.52-1.91c0.07-0.01,0.14-0.03,0.22-0.04c5.16-1.46,10.53-1.7,15.9-3.05 c-4.42,0.02-8.73,0.64-13.11,0.8c-0.63-0.49-1.26-0.99-1.89-1.5c0.89-0.24,1.79-0.48,2.68-0.72c0.71-1.04,2.19-2.23,1.9-3.62 c-0.23-0.09-0.45-0.18-0.67-0.27c-1.19,0.38-2.37,0.77-3.57,1.11c-3.14,0.88-6.27,1.78-9.4,2.67c-1.09,0.31-2.17,0.63-3.26,0.94 c-0.87-1.93-0.19-1.96,1.81-2.76c0.97-0.38,1.97-0.71,2.94-1.1c0.99-0.4,1.96-0.84,2.92-1.29c0.43-0.21,0.91-0.59,1.32-0.86 c-1.2-0.05-2.4-0.11-3.6-0.17c2.48-0.93,4.95-1.88,7.45-2.76c0.8-0.28,1.61-0.57,2.41-0.85c-0.3-0.22-0.59-0.44-0.67-0.72 c1.37-0.83,2.75-1.64,4.13-2.45c-0.85-0.56-1.69-1.14-2.52-1.73c0.74-1.29,0.24-2.35-0.6-3.23c-1.59,0.36-3.17,0.76-4.75,1.09 c-2.54,0.53-5.11,1.03-7.69,1.32c-0.83,0.09-2.36,0.11-2.9-0.66c-1.05-1.49-3.81-0.92-5.28-0.54c-1.09,0.28-2.12,0.73-3.19,1.03 c-0.46,0.13-0.99,0.1-1.47,0.14c0.13-0.3,0.18-0.65,0.42-0.87c2.04-1.65,2.8-3.26,3.36-5.75c0.34-1.49,0.87-2.81,1.72-4.09 c1.39-2.23-0.78-1.64-2.38-1.33c-0.56,0.12-1.14,0.18-1.68,0.36c-3.11,0.95-4.77,0.68-7.87,0.73c-0.18-0.01-0.4-0.26-0.57-0.38 c0.49-0.28,0.96-0.64,1.5-0.83c8.38-2.91,16.79-5.75,25.19-8.58c0.3-0.1,0.59-0.2,0.89-0.3c0.15-0.37,0.47-0.75,0.92-1.14 c0.23-0.2,0.4-0.46,0.59-0.68c1.78-0.48,3.63-0.75,5.49-1.01c-0.76-0.29-1.99-0.31-1.65-1.23c-1.01-0.01-2.01-0.03-3.02-0.05 c0.89-0.83,1.79-1.65,2.6-2.54c0.42-0.45,1.21-1.09,1.37-1.77c-0.46-0.08-0.84-0.32-1.03-0.89c-0.72,0.23-1.43,0.46-2.15,0.69 c-3.6,1.16-7.19,2.34-10.8,3.47c-4.92,1.53-9.87,2.99-14.81,4.46c-0.41,0.12-0.9,0.12-1.33,0.18c-0.14-0.33-0.29-0.66-0.44-0.99 c3.54-2.35,8.79-3.98,12.78-5.36c4.55-1.57,9.1-3.12,13.65-4.66c0.38-0.13,0.77-0.26,1.15-0.39c0.62-0.78,1.23-1.57,1.85-2.35 c-1.27,0.15-2.41,0.41-3.65,0.72c-2.4,0.59-4.31,1.15-6.83,1.24c1.08-0.45,2.17-0.94,3.27-1.35c1.05-0.4,2.12-0.73,3.16-1.11 c0.05-0.02,0.11-0.04,0.16-0.06c-0.02-0.01-0.19-0.05-0.2-0.05c-0.37-0.15-0.63-0.32-1.04-0.3c-1.99,0.16-4.37,0.69-6.33,0.37 c-0.83-0.07-2.4,0.47-3.29,0.67c-0.85,0.17-2.25,0.6-2.97-0.07c0.27-0.24,0.56-0.46,0.85-0.68c-0.85,0.28-1.69,0.55-2.52,0.82 c-0.08,0.24-0.21,0.45-0.39,0.64c-0.25,0.22-1.35,0.68-1.7,0.84c0.08-0.26,0.12-0.63,0.24-0.88c-11.74,3.85-21.82,7.2-27.41,9.06 c-2.97,0.99-4.68,1.56-4.71,1.55l0.01-0.08c0.01,0,1.71-0.56,4.68-1.55c5.6-1.86,15.72-5.23,27.49-9.09 c0.01-0.02,0.03-0.04,0.05-0.06c0.34-0.33,0.85-0.61,1.26-0.85c0.06-0.04,0.58,0.04,0.56,0.13c-0.01,0.06-0.03,0.12-0.05,0.18 c0.89-0.29,1.78-0.58,2.69-0.88c3.18-2.3,7.31-3.61,10.87-5.11c1.08-0.45,2.14-0.92,3.2-1.43c-1.25,0.04-2.3,0.17-3.52,0.43 c-0.99,0.21-1.87,0.48-2.82,0.79c-0.51,0.17-1.89,0.75-2.36,0.69c-2.76-0.36-5.73,1.08-8.35,1.82c-4.9,1.39-9.76,2.89-14.64,4.34 c-2.1-0.04-4.18-0.1-6.28-0.22c-0.06,0.01-0.13,0.01-0.2,0.01c-0.25-0.3-0.5-0.6-0.75-0.9c0.05-0.03,0.52-0.37,0.53-0.38 c0.09-0.09,0.17-0.17,0.29-0.23c0.46-0.22,0.93-0.42,1.41-0.57c1.06-0.32,2.05-0.88,1.91-2.14c2.68-0.94,5.13-2.29,7.56-3.75 c0.93-0.56,1.9-1.33,2.01-2.49c0.07-0.74-0.53-0.95-1.17-0.92c-0.94,0.04-2.11,0.02-2.81-0.71c-1.14-1.19-3.4-0.84-4.81-0.47 c-0.26,0.07-0.57,0.03-0.84,0.04c-1.68-2.44-5.18-1.56-7.63-1.07c-0.56,0.14-1.12,0.28-1.68,0.42c-0.87-1.34-1.73-2.68-2.59-4.03 c0.92-0.33,1.83-0.66,2.75-0.99c0.27-0.11,0.57-0.2,0.85-0.3c1.11-0.37,2.14-0.84,3.15-1.44c1.28-0.75,2.83-1.25,4.23-1.75 c2.39-0.86,2.8-1.05,4.96-2.43c-0.54,0.06-1.13,0.06-1.66,0.18c-1.17,0.26-2.32,0.59-3.48,0.85c-1.22,0.28-3.2,0.67-4.28-0.17 c-1.44-1.12-3.62-0.78-5.26-0.34c-0.09,0.02-0.19,0.05-0.28,0.07c-1.59,0.44-3.19,0.84-4.8,1.2c-0.55,0.12-1.1,0.1-1.66,0.14 c0.11-0.16,0.25-0.48,0.41-0.56c1.87-0.73,3.72-1.45,5.61-2.11c0.19-0.08,0.4-0.14,0.6-0.21c1.78-0.6,3.61-1.08,5.4-1.62 c3.72-1.13,7.35-2.41,10.96-3.85c-0.59,0-1.62-0.09-2.16,0.03c-2.07,0.52-4.14,1.05-6.19,1.66c-2.49,0.73-5.05,1.4-7.62,1.73 c-0.56,0.07-1.1,0.16-1.65,0.27c-1.64,0.4-3.26,0.84-4.9,1.23c0.13-1.07,2.38-1.71,2.85-2.63c-0.45-0.54-1.87-0.15-2.44-0.01 c-1.49,0.38-3.38,0.82-4.86,0.2c-0.75-0.25-2.13-0.05-2.98-0.05c-0.14,0.02-0.27,0.04-0.41,0.05c-0.56-0.63-1.1-1.27-1.62-1.93 c0.4-0.25,0.77-0.44,1.2-0.62c0.75-0.37,1.54-0.55,2.33-0.79c1.15-0.37,2.31-0.71,3.47-1.07c1.66-0.51,3.32-1.02,4.98-1.54 c6.06-1.81,12.12-3.64,18.17-5.5c1.73-0.53,3.83-1.07,5.19-2.32c0.27-0.25,0.92-0.48,1.28-0.6c2.94-0.99,5.89-1.95,8.84-2.93 c1.16-0.38,2.33-0.76,3.5-1.13c0.77-0.25,1.58-0.33,2.37-0.46c0.65-0.72,1.31-1.43,1.97-2.13c-0.09-0.65-0.64-0.59-1.13-0.44 c-0.84,0.26-1.53,0.22-1.84-0.57l-0.66,0.2c-1.72,0.53-3.45,1.07-5.17,1.6c-5.22,1.6-10.44,3.19-15.66,4.8 c-1.64,0.51-3.31,1.02-5.02,1.21c-1.31,0.15-2.66,0.57-3.91,0.99c-3.22,1.05-6.22,1.76-9.52,2.47c-1.22,0.31-2.45,0.63-3.67,0.95 c-2.37,0.62-4.74,1.31-7.12,1.91c-0.06,0.01-0.12,0.03-0.17,0.04c-0.8,0.23-1.6,0.47-2.4,0.68c-0.7-0.38-0.14-0.88,0.31-1.14 c0.55-0.31,1.09-0.57,1.67-0.82c0.47-0.24,0.9-0.43,1.4-0.6c3.1-1.04,6.18-2.11,9.28-3.16c3-1.03,5.98-2,9.02-2.9 c6.54-1.92,12.99-4.23,19.47-6.34c1.72-0.56,3.44-1.11,5.16-1.68c2.29-0.75,4.58-1.49,6.88-2.23l0.05-0.12 c-1.11-1.11-1.44-1.82-2.93-1.69c0.69-0.6,1.96-1.36,1.74-2.43c-0.05-0.23,0.24-0.62,0.42-0.74c1.66-1.08,2.39-2.74,3.79-4.04 c-0.85-0.56-2.01,0.85-2.92,0.61c0.2-0.25,0.42-0.49,0.6-0.76c1.93-2.9,5.15-4.78,8.31-6.07c1.49-0.61,2.93-1.34,4.4-1.99 C110.49,221.2,116.95,218.92,123.56,217.1z M112.71,232.68c-0.1-0.05-0.21-0.12-0.3-0.19c-3.94,1.5-7.37,3.28-11.32,4.98 c-0.85,0.37-1.67,0.77-2.49,1.19c1.45-0.46,2.9-0.92,4.35-1.37c3.13-1.62,6.31-3.14,9.59-4.53 C112.6,232.73,112.66,232.71,112.71,232.68z M146.53,195.01c-0.04-0.09-0.07-0.18-0.11-0.27c-0.81,0.32-1.63,0.65-2.44,0.97 c0.02,0.06,0.05,0.12,0.07,0.18C144.88,195.59,145.7,195.3,146.53,195.01z M214.87,156.29c-2.14,0.47-4.25,1.09-6.38,1.61 c-1.72,0.42-3.47,0.7-5.21,1.02c-0.12,0.02-0.29-0.15-0.39-0.21c0.01-0.04,0.04-0.18,0.08-0.19c5.2-1.25,10.4-2.51,15.58-3.84 c0.23-0.06,0.62,0.04,0.87,0.05c-0.2,0.64-0.74,0.6-1.24,0.81c-0.51,0.21-1.02,0.43-1.53,0.65c0.26,0,0.56,0.06,0.82-0.01 c3.07-0.81,6.13-1.66,9.18-2.55c0.63-0.18,1.25-0.43,1.88-0.61c4.12-1.22,8.23-2.47,12.3-3.85c1.77-0.6,3.47-1.38,5.23-2 c6.12-2.2,11.66-4.81,17.5-7.64c0.63-0.3,1.25-0.58,1.89-0.86c4.98-2.18,10.13-4.13,15.28-5.86c3.33-1.12,6.72-2.06,10.07-3.1 c9.09-2.83,18.22-5.55,27.4-8.11c7.13-1.99,14.31-3.83,21.49-5.65c2.06-0.52,4.1-1.1,6.15-1.64c-0.96-0.24-1.93-0.47-2.89-0.7 c0.33-0.2,0.75-0.51,1.1-0.65c0.8-0.3,1.6-0.59,2.42-0.83c0.8-0.24,1.62-0.4,2.43-0.62c1.89-0.53,2.17-0.56,1.63-2.42 c-0.9,0.13-1.8,0.27-2.7,0.41c-2.59,0.39-5.18,0.83-7.77,1.25c-2.8,0.46-5.47,1.37-8.35,1.28c-0.89-0.03-2.02,0.38-2.9,0.6 c-3.99,1.01-7.98,2.04-11.95,3.11c-9.91,2.66-19.8,5.43-29.63,8.38c-3.31,0.99-6.64,1.94-9.93,3.01c-3.05,1-6.06,2.13-9.08,3.22 c-0.91,0.33-2.34,0.83-3.3,0.69c-1.26-0.19-2.31,0.31-3.43,0.83c-0.36,0.17-0.72,0.33-1.08,0.5c-3.65,1.81-7.25,3.56-10.98,5.19 c-5.39,2.32-10.86,4.51-16.46,6.3c-1.87,0.6-3.66,1.39-5.53,1.96c-4.49,1.39-9.03,2.61-13.57,3.85c-3.49,0.96-6.95,2.02-10.47,2.86 c-7.43,1.77-14.89,3.33-22.24,5.4c-0.49,0.14-0.98,0.22-1.47,0.35c-3.88,1.02-7.81,1.59-11.27,3.8c-0.4,0.26-1.05,0.31-1.52,0.44 c-1.03,0.27-2.07,0.5-3.08,0.81c-2.6,0.82-5.18,1.74-7.78,2.56c-5.37,1.69-10.74,3.38-16.05,5.26c-4.48,1.58-8.92,3.29-13.33,5.07 c-2.68,1.08-5.41,2.14-7.73,3.89c-0.7,0.52-1.61,0.85-2.38,1.27c-0.7,0.38-1.54,1-1.42,1.91c0.07,0.53,0.05,1.08,0.08,1.61 c0.7-0.06,1.41-0.11,2.11-0.16c-1.66,1.93-4.38,2.26-6.31,3.75c0.18,0.04,0.48,0.16,0.64,0.1c3.77-1.68,7.56-3.33,11.37-4.93 c0.15-0.08,0.3-0.41,0.41-0.57c-0.7,0.03-1.41,0.06-2.11,0.1c4.43-2.16,8.88-4.3,13.4-6.27c7.45-3.24,15.16-5.43,22.97-7.58 c3.94-1.08,7.88-2.15,11.83-3.18c5.32-1.39,10.65-2.77,16-4.02c4.07-0.94,8.15-1.78,12.25-2.59c1.22-0.24,2.49-0.69,3.74-0.58 c0.09,0.63-0.28,0.84-0.83,0.95c-1.87,0.38-3.75,0.7-5.61,1.09c-0.93,0.19-1.83,0.49-2.75,0.75c4.72-0.44,9.26-1.73,13.89-2.66 c3.58-0.72,7.12-1.66,10.56-2.89C216.13,156.23,215.48,156.16,214.87,156.29z M129.45,180.91c3.21-1.33,6.43-2.65,9.65-3.94 c0.11-0.04,0.17-0.28,0.22-0.38c-0.14-0.03-0.42-0.17-0.55-0.12c-3.25,1.24-6.49,2.53-9.7,3.87c-0.48,0.21-1.18,0.72-1.64,1.01 C128,181.23,128.94,181.1,129.45,180.91z M184.04,163.44c-1.91,0.53-3.81,1.16-5.82,1.14c-0.2,0-0.41,0.07-0.6,0.12 c-0.52,0.12-0.95,0.33-0.77,0.95c2.78-0.29,5.32-1.48,7.99-2.2C184.58,163.44,184.29,163.37,184.04,163.44z M155.39,171.26 c0.31,0.02,1.02,0.14,1.29,0.06c3.22-1.1,6.67-1.65,9.79-3.01C162.47,169.27,159.32,169.66,155.39,171.26z M141.56,176.01 c1.75-0.58,3.56-1.02,5.1-2.08C144.13,174.59,143.72,174.6,141.56,176.01z M171.1,166.74c0.16,0.13,0.37,0.44,0.59,0.43 c1.38-0.07,2.13-0.56,3.33-1.21c-1.45-0.03-2.58,0.65-3.94,0.83C171.09,166.78,171.1,166.76,171.1,166.74z M189.59,162.6 c-1.31-0.05-2.07,0.16-3.25,0.68C187.63,163.18,188.38,163.23,189.59,162.6z M119.94,190.73c0.43-0.2,0.85-0.39,1.28-0.58 c0.44-0.2,0.87-0.4,1.31-0.59c-0.04-0.08-0.09-0.16-0.13-0.25c-0.43,0.19-0.86,0.39-1.28,0.58c-0.44,0.2-0.87,0.4-1.31,0.6 C119.85,190.57,119.89,190.65,119.94,190.73z M171.07,166.81c-0.95,0.17-1.91,0.35-2.72,0.92c1.02-0.05,2.04-0.18,2.76-0.99 C171.1,166.74,171.08,166.79,171.07,166.81z M149.93,172.77c-0.39,0.1-0.77,0.25-1.14,0.4c-0.02,0.01-0.02,0.17,0.03,0.19 c0.48,0.28,1.01-0.04,1.45-0.24c0.05-0.02,0.07-0.15,0.09-0.2C150.24,172.87,150.06,172.74,149.93,172.77z M125.58,182.28 c-0.1-0.06-0.28-0.24-0.39-0.21c-0.2,0.06-0.39,0.25-0.56,0.37c0.14,0.08,0.28,0.16,0.42,0.25 C125.23,182.56,125.4,182.42,125.58,182.28z M127.01,187.41c-0.08,0.02-0.16,0.03-0.24,0.05c0.02,0.03,0.04,0.06,0.05,0.1 C126.88,187.51,126.95,187.46,127.01,187.41z M54.65,258.7c-7.38,0.06-10.77-0.12-17.29,1.82c-0.24,0.07-0.49,0.15-0.73,0.23 c-0.02,0.01-0.19,0.07-0.2,0.08c-0.01-0.05-0.02-0.11-0.01-0.16c0.06,0.02,0.13,0.02,0.19,0.01c0.01,0.01,0.71-0.17,0.74-0.18 C44.02,258.61,47.02,258.77,54.65,258.7z" style="fill: inherit;"/></g></svg>